<svg width="600" height="358" viewBox="0 0 600 358" fill="none" xmlns="http://www.w3.org/2000/svg">
<g clip-path="url(#clip0_11840_177048)">
<path opacity="0.2" d="M309.832 288.028C289.598 286.548 269.246 285.742 248.834 285.718C229.573 285.695 210.206 286.95 191.016 285.564C171.672 284.167 152.72 281.762 133.258 280.744C113.345 279.701 93.2651 278.6 73.2568 278.552C57.1528 278.505 39.9096 279.784 28.0897 286.702C24.1023 289.035 19.6046 292.411 20.7676 295.905C22.1917 300.169 30.6887 302.266 37.1682 303.343C44.8226 304.611 52.7975 304.706 60.7011 304.8C71.6428 304.931 82.5963 304.954 93.538 304.895C113.606 304.777 133.661 304.327 153.682 303.628C198.564 302.04 243.256 299.198 287.925 296.331C293.313 296.509 298.7 296.746 304.076 297.018C306.829 297.16 308.811 296.438 309.939 295.407C316.893 294.922 317.581 288.609 309.832 288.04V288.028Z" fill="black"/>
<path d="M290.475 192.752C287.239 195.538 286.879 200.414 289.67 203.644C292.461 206.874 297.347 207.234 300.583 204.448L325.331 183.142C328.567 180.356 328.927 175.479 326.136 172.25C323.345 169.02 318.459 168.66 315.223 171.446L290.475 192.752Z" fill="#5973AD"/>
<path d="M313.036 155.19C310.245 151.96 305.359 151.6 302.123 154.386C298.887 157.172 298.527 162.049 301.318 165.278L314.418 180.436C317.209 183.666 322.094 184.026 325.33 181.24C328.566 178.454 328.927 173.577 326.136 170.348L313.036 155.19Z" fill="#5973AD"/>
<path d="M309.305 151.949L297.973 161.705L295.965 159.382C295.4 158.727 295.473 157.741 296.129 157.177L305.079 149.471C305.735 148.906 306.722 148.979 307.288 149.634L309.296 151.957L309.305 151.949Z" fill="#D7F0FF"/>
<path d="M303.4 166.681L313.437 158.039C314.341 157.261 314.441 155.9 313.662 154.999L310.135 150.918C309.356 150.016 307.992 149.916 307.089 150.693L297.051 159.335C296.148 160.112 296.048 161.474 296.827 162.375L300.353 166.456C301.133 167.358 302.496 167.458 303.4 166.681Z" fill="#7389DA"/>
<path d="M280.279 250C279.005 246.301 274.97 244.332 271.267 245.603C267.563 246.873 265.594 250.902 266.868 254.602L272.77 271.74C274.044 275.439 278.079 277.408 281.783 276.138C285.486 274.867 287.456 270.838 286.182 267.139L280.279 250Z" fill="#162E39"/>
<path d="M260.717 224.144C258.329 221.041 253.876 220.456 250.77 222.836C247.664 225.217 247.082 229.662 249.469 232.764L266.88 255.396C269.267 258.498 273.72 259.084 276.826 256.703C279.932 254.323 280.515 249.878 278.128 246.775L260.717 224.144Z" fill="#162E39"/>
<path d="M288.731 268.994L277.659 272.464C277.315 272.571 276.923 272.358 276.674 271.955L273.245 265.973C272.995 265.547 273.114 264.99 273.458 264.884L285.053 261.259C285.29 261.188 285.563 261.33 285.717 261.614L289.064 267.43C289.42 268.046 289.265 268.84 288.731 269.006V268.994Z" fill="#5E6B6B"/>
<g style="mix-blend-mode:overlay" opacity="0.2">
<path d="M285.409 270.036C285.373 269.894 285.326 269.752 285.29 269.61C285.243 269.444 285.183 269.278 285.112 269.112C285.1 269.065 285.017 268.863 284.982 268.804C284.697 268.247 284.376 267.703 284.056 267.181C283.7 266.625 283.332 266.08 282.952 265.535C282.845 265.357 282.715 265.18 282.584 265.002C281.955 265.085 281.326 264.789 280.947 264.268C280.591 263.758 280.614 263.071 280.923 262.55L283.617 261.709C284.21 261.922 284.661 262.337 285.053 262.811C285.587 263.45 286.05 264.173 286.512 264.884C287.391 266.198 288.162 267.537 288.554 269.053L285.421 270.036H285.409Z" fill="black"/>
</g>
<path d="M285.527 266.281L291.663 285.801L288.114 286.086L288.257 286.548C288.423 287.069 283.771 289.378 282.003 290.362C281.386 290.705 279.321 291.203 279.321 291.203C278.929 291.321 278.478 291.001 278.312 290.48L270.551 265.772L282.418 262.053C284.364 261.449 284.709 263.664 285.527 266.269V266.281Z" fill="#8C9899"/>
<g style="mix-blend-mode:overlay" opacity="0.2">
<path d="M280.816 263.332C281.101 265.002 281.35 266.672 281.552 268.366C281.647 269.171 281.73 269.977 281.813 270.782C281.896 271.718 282.003 272.654 281.599 273.542C280.899 275.046 279.332 275.958 277.837 276.515C276.686 276.953 275.44 277.321 274.301 277.7L272.983 273.507C273.339 273.258 273.719 273.033 274.099 272.831C274.752 272.488 275.44 272.227 276.128 271.955C276.472 271.813 276.793 271.682 277.125 271.528C277.196 271.493 277.268 271.457 277.327 271.434C277.327 271.339 277.303 271.256 277.268 271.09C277.113 270.261 277.564 269.503 278.312 269.195C278.276 268.946 278.264 268.698 278.229 268.461C278.039 266.98 277.825 265.511 277.564 264.031C277.54 263.889 277.529 263.735 277.564 263.592L280.507 262.669C280.673 262.858 280.78 263.095 280.816 263.332Z" fill="black"/>
</g>
<g style="mix-blend-mode:overlay" opacity="0.2">
<path d="M270.551 265.784L278.324 290.516C278.49 291.025 278.917 291.345 279.297 291.226L280.294 290.918L272.236 265.263L270.551 265.796V265.784Z" fill="black"/>
</g>
<path d="M269.352 275.058L280.436 271.588C280.78 271.481 280.982 271.078 280.947 270.605L280.341 263.735C280.294 263.237 279.89 262.858 279.534 262.965L267.952 266.589C267.714 266.66 267.572 266.933 267.596 267.264L268.177 273.945C268.237 274.667 268.818 275.224 269.34 275.058H269.352Z" fill="#5E6B6B"/>
<path d="M302.142 292.269L283.154 291.842C282.572 291.83 282.24 291.179 282.596 290.729L289.894 281.312C291.497 279.251 294.38 279.322 295.887 281.442L302.747 291.179C303.079 291.641 302.723 292.28 302.142 292.269Z" fill="#ACBEBF"/>
<path d="M280.498 287.523C281.592 287.18 282.163 285.896 281.773 284.654C281.383 283.411 280.179 282.682 279.085 283.025C277.99 283.367 277.419 284.652 277.81 285.894C278.2 287.136 279.403 287.865 280.498 287.523Z" fill="#ACBEBF"/>
<path opacity="0.5" d="M297.549 285.328C297.418 285.15 297.3 284.949 297.181 284.759C297.086 284.558 296.991 284.356 296.896 284.155C296.789 283.906 296.659 283.669 296.517 283.444C296.386 283.219 296.196 283.042 296.018 282.864C295.757 282.603 295.437 282.414 295.128 282.236C294.903 282.106 294.665 282.011 294.44 281.928C294.06 281.786 293.645 281.774 293.277 281.952C292.944 282.118 292.612 282.473 292.493 282.852C292.363 283.267 292.339 283.74 292.517 284.143C292.683 284.522 292.956 284.866 293.324 285.008C293.526 285.079 293.716 285.174 293.906 285.268C293.965 285.316 294.036 285.363 294.096 285.422C294.107 285.446 294.131 285.47 294.143 285.493C294.25 285.73 294.357 285.967 294.475 286.204C294.701 286.63 294.926 287.045 295.211 287.424C295.448 287.744 295.816 287.981 296.196 288.028C296.564 288.076 297.027 287.945 297.312 287.673C297.596 287.389 297.834 287.009 297.858 286.583C297.893 286.145 297.798 285.695 297.537 285.351L297.549 285.328Z" fill="white"/>
<path opacity="0.5" d="M299.222 287.957C297.323 287.91 296.861 291.191 298.771 291.238C300.682 291.285 301.133 288.004 299.222 287.957Z" fill="white"/>
<path opacity="0.5" d="M279.926 283.859C278.265 284.38 278.739 287.069 280.424 286.536C282.11 286.003 281.611 283.326 279.926 283.859Z" fill="white"/>
<path d="M307.15 178.393C307.15 194.135 301.026 208.467 291.034 219.127C287.094 223.332 282.549 224.588 277.541 227.513C268.712 232.678 258.423 235.639 247.445 235.639C241.429 235.639 235.626 234.751 230.155 233.092C215.843 228.781 203.797 221.627 196.25 209.083C193.651 204.795 191.586 200.14 190.15 195.237C188.572 189.895 187.729 184.245 187.729 178.405C187.729 153.472 203.073 132.104 224.862 123.221C231.828 120.366 239.459 118.803 247.445 118.803C280.425 118.803 307.162 145.477 307.162 178.393H307.15Z" fill="#6CC8EC"/>
<path d="M291.034 219.116C280.14 230.735 264.641 236.8 247.434 236.8C220.317 236.8 197.413 219.945 190.138 195.213C215.724 208.858 248.965 223.249 291.034 219.104V219.116Z" fill="#7389DA"/>
<path d="M277.541 229.871C268.711 235.035 258.422 237.996 247.445 237.996C225.704 237.996 206.681 226.4 196.25 209.071C218.074 220.075 244.977 230.404 277.553 229.871H277.541Z" fill="#1B3541"/>
<g style="mix-blend-mode:overlay" opacity="0.4">
<path d="M230.143 235.449C215.831 231.138 203.786 221.615 196.238 209.071C193.639 204.783 191.574 200.128 190.138 195.225C188.56 189.883 187.717 184.233 187.717 178.393C187.717 153.46 203.062 132.092 224.85 123.209C202.955 145.655 184.133 197.819 230.143 235.449Z" fill="#0049FF"/>
</g>
<path d="M237.89 256.793C239.107 253.075 237.076 249.076 233.354 247.863C229.631 246.649 225.627 248.68 224.41 252.398L218.772 269.625C217.555 273.343 219.586 277.342 223.308 278.555C227.031 279.769 231.035 277.739 232.252 274.02L237.89 256.793Z" fill="#162E39"/>
<path d="M231.293 227.432C230.274 223.654 226.382 221.417 222.6 222.434C218.819 223.451 216.581 227.337 217.6 231.114L224.013 254.868C225.033 258.646 228.925 260.883 232.706 259.866C236.487 258.849 238.726 254.963 237.706 251.186L231.293 227.432Z" fill="#162E39"/>
<path d="M232.564 280.187L221.634 276.29C221.29 276.172 221.1 275.757 221.159 275.283L222.026 268.449C222.085 267.951 222.512 267.584 222.856 267.714L234.296 271.789C234.522 271.872 234.664 272.156 234.617 272.476L233.774 279.121C233.691 279.832 233.086 280.365 232.564 280.175V280.187Z" fill="#5E6B6B"/>
<g style="mix-blend-mode:overlay" opacity="0.2">
<path d="M229.288 279.014C229.348 278.884 229.395 278.742 229.443 278.6C229.502 278.434 229.561 278.268 229.597 278.09C229.609 278.043 229.668 277.83 229.68 277.771C229.799 277.155 229.87 276.539 229.917 275.923C229.965 275.26 230 274.608 230.024 273.945C230.036 273.743 230.048 273.518 230.06 273.293C229.514 272.985 229.182 272.369 229.205 271.718C229.229 271.09 229.668 270.569 230.214 270.332L232.872 271.28C233.216 271.801 233.323 272.405 233.359 273.021C233.406 273.862 233.335 274.715 233.276 275.556C233.181 277.131 232.991 278.671 232.386 280.104L229.288 279.003V279.014Z" fill="black"/>
</g>
<path d="M231.638 276.101L224.743 295.372L221.456 291.451L221.29 291.913C221.112 292.423 216.294 293.489 214.276 293.216C213.576 293.121 211.63 292.269 211.63 292.269C211.238 292.126 211.084 291.605 211.262 291.096L219.984 266.708L231.697 270.877C233.62 271.564 232.552 273.542 231.638 276.112V276.101Z" fill="#8C9899"/>
<g style="mix-blend-mode:overlay" opacity="0.2">
<path d="M229.668 270.913C228.885 272.417 228.066 273.897 227.212 275.366C226.796 276.065 226.381 276.764 225.954 277.451C225.455 278.244 224.981 279.062 224.114 279.524C222.643 280.305 220.839 280.08 219.308 279.63C218.121 279.287 216.911 278.837 215.771 278.446L217.255 274.3C217.694 274.312 218.121 274.359 218.548 274.43C219.272 274.549 219.984 274.75 220.696 274.952C221.052 275.046 221.397 275.129 221.753 275.212C221.824 275.224 221.907 275.248 221.978 275.26C222.026 275.188 222.073 275.106 222.132 274.952C222.512 274.194 223.319 273.862 224.102 274.075C224.221 273.862 224.363 273.649 224.482 273.435C225.23 272.144 225.942 270.83 226.63 269.503C226.701 269.373 226.784 269.254 226.891 269.148L229.799 270.19C229.811 270.439 229.763 270.687 229.644 270.913H229.668Z" fill="black"/>
</g>
<g style="mix-blend-mode:overlay" opacity="0.2">
<path d="M219.996 266.696L211.262 291.108C211.084 291.617 211.238 292.126 211.618 292.257L212.603 292.612L221.669 267.288L220.008 266.696H219.996Z" fill="black"/>
</g>
<path d="M213.433 273.376L224.375 277.273C224.719 277.392 225.123 277.202 225.372 276.799L229.051 270.948C229.312 270.534 229.229 269.977 228.873 269.858L217.444 265.784C217.207 265.701 216.934 265.831 216.756 266.115L213.184 271.789C212.804 272.393 212.935 273.199 213.445 273.376H213.433Z" fill="#5E6B6B"/>
<path d="M237.382 295.514L218.394 295.348C217.813 295.348 217.48 294.697 217.824 294.247L224.992 284.723C226.559 282.639 229.454 282.663 230.985 284.771L237.987 294.412C238.319 294.874 237.987 295.514 237.394 295.502L237.382 295.514Z" fill="#ACBEBF"/>
<path d="M217.54 288.549C217.979 287.323 217.459 286.017 216.379 285.632C215.299 285.247 214.067 285.928 213.629 287.154C213.19 288.38 213.71 289.686 214.79 290.071C215.87 290.456 217.101 289.775 217.54 288.549Z" fill="#ACBEBF"/>
<path opacity="0.5" d="M232.694 288.632C232.551 288.455 232.433 288.265 232.326 288.064C232.219 287.862 232.124 287.661 232.029 287.46C231.923 287.211 231.78 286.986 231.65 286.761C231.507 286.548 231.317 286.37 231.151 286.192C230.89 285.932 230.57 285.754 230.249 285.576C230.024 285.458 229.786 285.363 229.549 285.268C229.169 285.126 228.754 285.126 228.386 285.316C228.054 285.482 227.733 285.849 227.615 286.228C227.484 286.642 227.472 287.116 227.65 287.519C227.828 287.898 228.101 288.23 228.469 288.372C228.671 288.443 228.861 288.526 229.062 288.62C229.134 288.668 229.193 288.715 229.252 288.774C229.264 288.798 229.288 288.822 229.3 288.845C229.407 289.082 229.513 289.319 229.632 289.544C229.858 289.971 230.095 290.373 230.392 290.752C230.641 291.072 231.009 291.297 231.388 291.345C231.756 291.392 232.219 291.25 232.504 290.966C232.789 290.681 233.014 290.291 233.038 289.864C233.062 289.426 232.967 288.976 232.706 288.632H232.694Z" fill="white"/>
<path opacity="0.5" d="M234.415 291.238C232.516 291.226 232.101 294.507 234.011 294.531C235.922 294.555 236.337 291.262 234.415 291.238Z" fill="white"/>
<path opacity="0.5" d="M216.566 286.761C214.929 286.18 213.683 288.609 215.344 289.201C217.005 289.793 218.228 287.353 216.566 286.761Z" fill="white"/>
<path d="M294.072 178.796C293.799 185.749 290.536 191.079 286.881 190.89C283.225 190.7 280.555 185.062 280.828 178.109C281.101 171.156 284.294 165.66 287.949 165.85C291.604 166.039 294.357 171.831 294.084 178.796H294.072Z" fill="#1E2129"/>
<path d="M266.433 178.453C266.338 185.417 263.205 190.854 259.55 190.783C255.883 190.712 253.07 185.169 253.165 178.204C253.26 171.239 256.31 165.648 259.977 165.72C263.644 165.791 266.528 171.488 266.433 178.453Z" fill="#1E2129"/>
<path d="M290.049 174.283C291.497 174.283 292.672 173.111 292.672 171.666C292.672 170.22 291.497 169.048 290.049 169.048C288.6 169.048 287.426 170.22 287.426 171.666C287.426 173.111 288.6 174.283 290.049 174.283Z" fill="white"/>
<path d="M262.03 173.857C263.479 173.857 264.653 172.685 264.653 171.239C264.653 169.793 263.479 168.621 262.03 168.621C260.582 168.621 259.408 169.793 259.408 171.239C259.408 172.685 260.582 173.857 262.03 173.857Z" fill="white"/>
<path d="M183.826 194.243C179.672 193.243 175.492 195.794 174.49 199.94C173.488 204.086 176.043 208.258 180.198 209.258L199.914 214.004C204.068 215.004 208.248 212.454 209.249 208.308C210.251 204.161 207.696 199.989 203.542 198.989L183.826 194.243Z" fill="#5973AD"/>
<g style="mix-blend-mode:overlay" opacity="0.4">
<path d="M302.486 155.249C306.675 160.425 284.115 163.54 267.976 163.54C254.174 163.54 223.509 170.244 217.267 178.808C214.703 182.326 240.586 188.284 257.888 195.912C272.367 202.296 188.987 188.402 188.987 188.402C188.987 188.402 227.295 156.031 228.446 155.249C229.597 154.467 287.877 141.734 287.877 141.734L302.486 155.249Z" fill="#0049FF"/>
</g>
<path d="M225.894 102.196C225.823 103.547 224.992 104.684 223.889 105.003C219.747 106.212 215.688 104.222 211.464 102.516C209.838 101.865 208.176 101.237 206.515 100.728C203.287 99.7444 200.023 99.1877 196.914 99.6734C191.526 100.526 189.39 104.98 185.771 108.592C182.412 111.944 178.057 113.449 173.631 114.681C165.561 116.931 158.393 119.94 155.414 129.321C154.714 131.536 154.192 134.272 153.504 136.913C153.539 137.754 153.314 138.643 152.756 139.531C152.732 139.555 152.72 139.59 152.708 139.614C151.949 141.817 150.976 143.783 149.504 145.074C147.795 147.905 145.814 150.606 143.096 152.015C143.06 152.039 143.013 152.063 142.965 152.086C139.132 153.993 135.192 150.594 136.094 146.555C136.604 144.257 136.996 141.947 137.281 139.614C137.233 139.104 137.233 138.595 137.281 138.074C137.625 134.26 139.714 130.801 140.675 127.248C143.001 118.732 147.273 113.39 153.955 109.22C160.588 105.098 167.673 102.09 171.566 94.3432C175.423 86.6678 178.947 78.9095 186.305 75.0363C201.234 67.1951 217.397 81.3851 226.44 97.3399C227.591 99.3772 227.045 101.237 225.918 102.196H225.894Z" fill="#7F2F2F"/>
<g style="mix-blend-mode:overlay" opacity="0.1">
<path d="M218.869 91.7729L206.515 100.728C203.287 99.7444 200.023 99.1877 196.914 99.6733C191.526 100.526 189.39 104.98 185.771 108.592C182.412 111.944 178.057 113.449 173.63 114.681C165.561 116.931 158.393 119.94 155.414 129.321C154.714 131.536 154.192 134.272 153.503 136.913C153.539 137.754 153.313 138.642 152.756 139.531C152.732 139.555 152.72 139.59 152.708 139.614C151.949 141.817 150.976 143.783 149.504 145.074C147.795 147.905 145.813 150.606 143.096 152.015C145.232 149.374 147.7 145.82 148.709 142.433C150.691 135.859 146.692 125.601 151.533 120.224C156.363 114.858 163.686 113.354 168.361 109.682C173.037 106.01 174.651 101.604 178.543 94.4972C182.436 87.3904 183.077 80.0348 192.345 77.7606C201.602 75.4864 214.359 85.0214 218.88 91.7729H218.869Z" fill="black"/>
</g>
<path d="M226.654 98.6429C228.505 100.87 227.923 103.499 226.392 105.169C226.618 108.782 223.022 112.158 219.32 109.824C217.017 108.379 212.721 104.672 209.256 103.333C208.188 102.919 207.215 102.729 206.384 102.895C201.625 103.843 198.528 111.234 196.748 115.095C194.802 119.276 193.176 123.694 190.15 127.248C186.993 130.955 182.697 132.471 178.472 134.58C176.751 135.433 174.627 136.463 173.808 138.311C172.906 140.324 173.939 142.788 174.295 144.861C175.066 149.196 175.173 153.591 174.39 157.926C173.583 162.296 171.482 165.246 168.622 168.539C165.062 172.637 161.87 176.96 158.962 181.532C158.535 182.196 158.037 182.693 157.479 183.037C154.168 185.192 149.124 182.196 150.287 177.73C152.056 171.062 156.245 165.447 158.227 158.873C160.078 152.797 159.639 146.934 159.496 140.692C159.366 135.172 160.303 129.901 163.923 125.566C166.213 122.83 169.251 120.911 171.565 118.199C173.607 115.818 174.971 112.963 176.004 110.037C179.944 98.8205 181.214 85.8506 195.229 83.1618C208.212 80.6744 218.892 89.2855 226.654 98.6429Z" fill="#8E4242"/>
<g style="mix-blend-mode:overlay" opacity="0.1">
<path d="M210.36 101.024L209.268 103.333C208.2 102.919 207.227 102.729 206.396 102.895C201.637 103.843 198.54 111.234 196.76 115.095C194.814 119.276 193.188 123.694 190.162 127.248C187.005 130.955 182.709 132.471 178.484 134.58C176.763 135.433 174.639 136.463 173.82 138.311C172.918 140.324 173.951 142.788 174.307 144.861C175.078 149.196 175.185 153.591 174.402 157.926C173.595 162.296 171.494 165.246 168.634 168.539C165.074 172.637 161.882 176.96 158.974 181.532C158.547 182.196 158.049 182.693 157.491 183.037C157.467 181.698 157.835 180.17 158.796 178.476C162.902 171.227 166.522 168.539 170.58 158.909C174.639 149.291 163.923 136.664 170.853 132.388C177.784 128.113 185.949 124.938 190.779 113.863C195.621 102.777 201.649 97.6479 210.348 101L210.36 101.024Z" fill="black"/>
</g>
<path d="M239.043 97.3873C234.249 92.0335 228.089 86.502 217.373 90.2805C206.04 94.2722 206.159 101.58 205.72 108.829C205.34 114.941 214.857 115.83 215.225 109.694C215.296 108.581 215.463 107.159 215.807 105.738C217.29 106.543 219.165 106.579 220.862 105.205C224.434 102.303 230.795 104.944 234.937 105.181C238.901 105.406 241.903 100.585 239.043 97.3873Z" fill="#5E6B6B"/>
<path d="M298.522 139.934C297.632 135.539 294.096 131.204 291.829 127.426C288.91 122.557 285.931 117.689 282.727 113.011C276.734 104.245 268.807 99.5786 258.802 97.1741C250.994 95.2908 242.295 95.1368 233.751 96.5108C223.462 98.1454 213.268 101.794 205.459 107.751C196.238 114.799 190.257 123.114 186.886 133.597C184.169 142.066 184.181 151.731 185.261 160.354C184.762 162.344 185.059 164.559 186.554 166.821C186.554 166.821 186.578 166.845 186.578 166.857C186.697 167.319 186.827 167.769 186.981 168.231C187.693 170.469 189.367 171.263 191.052 171.05C191.562 171.322 192.191 171.512 192.903 171.547C198.469 171.831 203.418 169.924 208.271 167.579C211.938 166.821 215.7 166.454 219.261 165.187C223.39 163.73 227.105 161.266 230.748 158.826C230.819 158.767 230.902 158.719 230.974 158.672C237.406 157.085 243.992 155.971 250.46 154.917C258.245 153.65 266.03 153.33 273.815 152.738C276.081 152.572 278.336 152.371 280.591 152.122C286.892 151.435 300.445 149.516 298.51 139.922L298.522 139.934ZM288.518 140.692C286.94 140.585 284.709 141.864 283.036 142.16C279.202 142.871 275.31 143.049 271.429 143.238C269.685 143.309 267.94 143.44 266.208 143.558C267.667 142.966 269.127 142.409 270.61 141.864C275.429 140.135 283.107 138.571 284.448 132.791C285.896 135.255 287.308 137.742 288.661 140.23C288.661 140.23 288.732 140.36 288.839 140.55C288.72 140.597 288.613 140.644 288.518 140.692Z" fill="#8C9899"/>
<g style="mix-blend-mode:overlay" opacity="0.2">
<path d="M280.603 152.134C278.336 152.382 276.081 152.584 273.826 152.75L263.063 145.761L254.72 118.459C249.225 107.254 241.061 100.941 233.75 96.5108C242.283 95.1368 250.994 95.3026 258.802 97.1741C268.807 99.5786 276.734 104.245 282.727 113.011C285.931 117.689 288.91 122.557 291.829 127.426C294.096 131.204 297.632 135.539 298.522 139.934C300.457 149.528 286.904 151.447 280.603 152.134Z" fill="black"/>
</g>
<path d="M303.079 189.065C291.984 192.062 284.222 197.534 272.913 199.619C259.847 196.622 244.04 192.299 230.273 188.201C216.163 183.996 202.255 179.483 188.097 175.432C187.171 175.16 186.341 175.16 185.64 175.361C183.92 175.669 182.496 176.854 182.424 179.069C182.175 186.59 183.742 192.441 191.04 196.291C198.944 200.448 207.192 204.108 215.309 207.851C231.923 215.527 250.092 220.537 268.391 227.999C269.246 228.354 270.243 228.639 271.299 228.674C272.201 228.698 273.162 228.544 274.111 228.082C283.57 223.581 290.215 219.814 298.712 213.857C306.165 208.609 307.15 203.137 308.633 195.533C309.44 191.47 307.542 187.845 303.079 189.054V189.065Z" fill="#99AAAA"/>
<path d="M305.038 153.377C301.81 156.907 295.52 156.966 291.188 157.156C285.943 157.381 280.698 156.907 275.464 156.931C273.435 156.931 271.429 157.049 269.436 157.251C260.381 158.115 251.599 160.686 242.865 163.469C232.303 166.845 221.61 170.138 211.547 174.97C204.593 178.299 194.944 185.5 187.124 180.739C182.353 177.837 181.997 172.483 181.617 166.999C181.511 165.412 182.033 163.078 183.492 161.609C200.142 144.719 220.851 132.069 241.405 121.089C247.113 118.033 252.667 116.185 258.411 115.841C262.529 115.581 266.742 116.09 271.204 117.44C276.556 119.075 281.825 121.16 287.106 123.055C291.497 124.642 296.636 125.755 300.67 128.219C304.777 130.73 305.785 135.184 306.509 139.803C307.162 143.961 308.194 149.931 305.038 153.377Z" fill="#ACBEBF"/>
<g style="mix-blend-mode:overlay" opacity="0.2">
<path d="M305.037 153.377C301.809 156.907 295.52 156.966 291.188 157.156C285.943 157.381 280.697 156.907 275.464 156.931C273.435 156.931 271.429 157.049 269.435 157.251C267.359 140.431 262.837 126.762 258.411 115.83C262.529 115.569 266.742 116.078 271.204 117.429C276.556 119.063 281.825 121.148 287.106 123.043C291.497 124.63 296.635 125.744 300.67 128.207C304.776 130.718 305.785 135.172 306.509 139.791C307.162 143.949 308.194 149.919 305.037 153.365V153.377Z" fill="black"/>
</g>
<path d="M275.274 126.466C273.399 120.627 264.487 124.05 266.362 129.889C268.32 135.989 269.566 142.184 270.183 148.568C270.776 154.668 280.282 153.745 279.689 147.633C278.988 140.419 277.493 133.36 275.286 126.466H275.274Z" fill="#8C9899"/>
<path d="M292.766 145.145C292.244 140.55 291.639 135.966 290.951 131.405C290.037 125.353 280.555 126.537 281.481 132.614C282.169 137.186 282.786 141.77 283.296 146.353C283.985 152.453 293.455 151.245 292.766 145.145Z" fill="#8C9899"/>
<path d="M304.349 136.428C303.744 133.999 300.457 132.649 298.237 133.549C295.65 134.603 294.713 137.043 295.354 139.649C295.461 140.076 295.484 140.099 295.484 140.088C295.484 140.111 295.484 140.182 295.532 140.478C295.615 141.094 295.71 141.71 295.757 142.326C295.852 143.475 295.852 144.624 295.781 145.785C295.639 148.284 298.57 150.464 300.908 150.179C303.756 149.836 305.156 147.739 305.31 145.062C305.477 142.113 305.061 139.294 304.349 136.428Z" fill="#8C9899"/>
<path d="M259.799 149.042C258.909 141.876 257.402 134.876 255.266 127.982C253.486 122.214 244.039 123.742 245.855 129.605C247.991 136.499 249.498 143.499 250.388 150.665C251.148 156.753 260.559 155.13 259.799 149.042Z" fill="#8C9899"/>
<path d="M244.3 151.92C243.766 146.022 242.295 140.265 240.977 134.509C239.613 128.539 230.582 131.654 231.935 137.588C233.074 142.551 234.308 147.491 234.771 152.584C235.329 158.672 244.858 158.056 244.3 151.932V151.92Z" fill="#8C9899"/>
<path d="M228.386 157.025C227.769 152.868 227.223 148.699 226.737 144.529C226.037 138.441 216.602 139.898 217.302 145.998C217.777 150.179 218.335 154.337 218.952 158.494C219.854 164.559 229.288 163.114 228.386 157.025Z" fill="#8C9899"/>
<path d="M213.849 162.664C213.291 159.525 212.745 156.386 212.187 153.259C211.736 150.724 208.698 149.244 206.349 149.859C203.678 150.558 202.492 153.14 202.943 155.687C203.5 158.826 204.046 161.965 204.604 165.092C205.055 167.627 208.093 169.107 210.443 168.491C213.113 167.792 214.3 165.21 213.849 162.664Z" fill="#8C9899"/>
<path d="M200.047 168.42C199.869 167.994 199.691 167.567 199.549 167.129C199.466 166.88 199.394 166.632 199.323 166.383C199.323 166.359 199.323 166.347 199.311 166.324C199.181 165.317 199.027 164.369 199.003 163.351C198.943 160.851 196.131 158.767 193.734 159.134C190.992 159.56 189.45 161.716 189.509 164.393C189.568 166.94 190.15 169.51 191.147 171.855C192.12 174.153 194.92 175.634 197.33 174.579C199.644 173.573 201.091 170.872 200.059 168.408L200.047 168.42Z" fill="#8C9899"/>
<g style="mix-blend-mode:overlay" opacity="0.2">
<path d="M308.633 195.545C307.138 203.149 306.165 208.609 298.712 213.868C290.215 219.838 283.57 223.605 274.111 228.094C273.162 228.556 272.201 228.71 271.299 228.686C273.209 218.654 273.518 208.171 272.913 199.619C284.234 197.546 291.984 192.062 303.08 189.065C307.553 187.857 309.44 191.482 308.633 195.545Z" fill="black"/>
</g>
<path d="M270.551 219.412C269.127 214.496 268.225 209.486 268.095 204.369C268.023 201.775 266.445 199.501 263.692 199.264C261.318 199.062 258.506 201.088 258.577 203.658C258.731 209.663 259.515 215.479 261.188 221.259C262.873 227.099 272.272 225.334 270.563 219.424L270.551 219.412Z" fill="#859998"/>
<path d="M257.794 206.892C257.639 206.43 257.497 205.956 257.366 205.482C257.366 205.459 257.129 204.44 257.094 204.286C256.868 203.161 256.702 202.024 256.583 200.875C256.334 198.399 253.794 196.291 251.279 196.705C248.691 197.132 246.828 199.347 247.101 202C247.398 204.89 248.051 207.721 248.953 210.493C249.724 212.873 252.964 214.129 255.183 213.098C257.675 211.949 258.624 209.427 257.794 206.88V206.892Z" fill="#859998"/>
<path d="M277.79 204.393C277.185 208.064 276.402 211.701 275.322 215.266C274.586 217.73 275.298 220.43 277.849 221.52C280.021 222.444 283.368 221.473 284.115 218.997C285.421 214.638 286.501 210.244 287.248 205.743C288.257 199.678 278.787 198.352 277.79 204.393Z" fill="#748785"/>
<path d="M294.463 195.225C291.829 195.225 289.645 197.108 289.479 199.773C289.455 200.223 289.42 200.661 289.372 201.112C289.36 201.23 289.242 201.988 289.218 202.261C289.159 202.509 289.04 203.066 289.016 203.161C288.886 203.67 288.743 204.168 288.589 204.665C287.865 207.046 289.135 209.983 291.651 210.67C294.107 211.345 296.884 210.161 297.668 207.614C298.403 205.21 298.854 202.711 299.02 200.2C299.175 197.712 297.015 195.225 294.463 195.225Z" fill="#748785"/>
<path d="M254.412 143.38C253.961 142.208 252.857 141.758 251.682 142.018C248.442 142.764 245.44 144.565 243.185 146.993C242.414 147.822 242.449 149.303 243.339 150.037C244.253 150.795 245.57 150.76 246.389 149.883C246.627 149.623 246.876 149.374 247.125 149.137C247.184 149.078 247.256 149.007 247.315 148.947C247.315 148.947 247.339 148.924 247.398 148.888C247.481 148.829 247.552 148.758 247.635 148.699C248.205 148.249 248.798 147.846 249.415 147.49C249.558 147.408 249.7 147.325 249.843 147.254C249.926 147.206 250.009 147.159 250.104 147.123C250.139 147.111 250.163 147.1 250.175 147.088C250.27 147.04 250.365 147.005 250.46 146.957C250.614 146.886 250.768 146.827 250.911 146.768C251.599 146.496 252.311 146.282 253.035 146.117C253.533 145.998 254.044 145.489 254.269 145.062C254.518 144.589 254.59 143.902 254.4 143.392L254.412 143.38Z" fill="#1E2129"/>
<path d="M295.366 148.118C295.366 148.118 295.401 148.154 295.413 148.166C295.401 148.166 295.378 148.142 295.366 148.13V148.118Z" fill="#1E2129"/>
<path d="M293.443 146.543C293.443 146.543 293.479 146.567 293.503 146.59C293.491 146.578 293.467 146.567 293.455 146.555L293.443 146.543Z" fill="#1E2129"/>
<path d="M299.27 146.045C296.861 143.096 293.277 141.094 289.456 140.846C288.862 140.81 288.328 140.857 287.818 141.225C287.403 141.533 287.023 142.077 286.952 142.599C286.821 143.653 287.51 145.015 288.708 145.086C289.48 145.133 290.239 145.252 290.987 145.453C291.046 145.465 291.117 145.501 291.2 145.524C291.082 145.489 290.939 145.43 291.153 145.501C291.188 145.501 291.224 145.524 291.248 145.536C291.272 145.536 291.283 145.548 291.307 145.548C291.307 145.548 291.272 145.548 291.248 145.548C291.402 145.595 291.556 145.655 291.699 145.714C292.067 145.856 292.435 146.022 292.779 146.199C292.933 146.282 293.087 146.365 293.241 146.448C293.301 146.484 293.36 146.519 293.419 146.555L293.396 146.531C293.396 146.531 293.419 146.543 293.431 146.555C293.467 146.578 293.503 146.59 293.526 146.614C293.716 146.721 293.586 146.661 293.479 146.602C293.598 146.697 293.787 146.792 293.882 146.863C294.048 146.981 294.203 147.1 294.357 147.218C294.654 147.455 294.927 147.692 295.2 147.952C295.235 147.988 295.295 148.059 295.354 148.118C295.271 148.035 295.188 147.905 295.33 148.071C295.354 148.095 295.378 148.13 295.401 148.154C295.413 148.154 295.425 148.177 295.437 148.189C295.437 148.189 295.413 148.177 295.401 148.166C295.52 148.308 295.639 148.438 295.757 148.58C296.469 149.457 297.822 149.812 298.772 149.066C299.65 148.379 300.018 146.993 299.258 146.057L299.27 146.045Z" fill="#1E2129"/>
<path opacity="0.1" d="M206.265 163.09C201.791 161.301 196.036 162 192.974 165.945C190.399 169.273 188.654 173.679 187.468 177.671C186.589 180.62 187.551 183.83 190.15 185.429C190.589 186.258 191.206 187.016 192.06 187.62C194.79 189.539 199.252 189.042 201.091 186.057C203.275 182.515 206.574 179.921 208.853 176.439C210.17 174.437 211.345 172.376 211.238 169.913C211.119 166.868 209.078 164.215 206.254 163.09H206.265Z" fill="black"/>
<path d="M195.703 164.926C196.594 165.139 197.104 166.051 196.831 166.916L196.131 169.19L196.06 169.415C196.036 169.522 196.06 169.616 196.154 169.676C196.202 169.711 196.273 169.711 196.344 169.699C196.404 169.676 196.451 169.652 196.475 169.593L196.57 169.415L199.418 164.002C199.869 163.161 200.925 162.829 201.756 163.291C202.587 163.741 202.859 164.807 202.42 165.637L200.379 169.522L200.189 169.877C200.189 169.877 200.189 169.913 200.177 169.913C200.177 169.995 200.201 170.055 200.249 170.09H200.261C200.344 170.149 200.439 170.126 200.486 170.043L203.417 165.447C203.678 165.033 204.106 164.76 204.557 164.653C205.007 164.559 205.494 164.63 205.921 164.902C206.764 165.435 207.013 166.56 206.479 167.401L203.465 172.128C203.465 172.128 203.441 172.175 203.441 172.21C203.441 172.258 203.453 172.293 203.488 172.329C203.56 172.4 203.678 172.388 203.726 172.305L203.844 172.128L206.408 168.527C206.977 167.721 208.093 167.544 208.888 168.124C209.671 168.704 209.814 169.818 209.256 170.611L204.568 177.233C204.485 177.339 204.426 177.458 204.379 177.588C204.284 177.789 204.177 177.979 204.058 178.168L200.771 183.321L190.565 176.83L191.502 175.361C191.835 174.84 191.942 174.212 191.787 173.608C191.704 173.3 191.716 172.957 191.811 172.613L193.84 166.075C194.09 165.269 194.908 164.76 195.727 164.961L195.703 164.926Z" fill="#6CC8EC"/>
<path opacity="0.2" d="M192.131 175.823C192.131 175.823 198.136 179.637 199.881 179.827C200.771 179.921 201.839 180.123 202.67 180.3L201.257 182.515L192.131 175.823Z" fill="#1E2129"/>
<path opacity="0.2" d="M200.189 169.924C200.189 169.984 200.213 170.055 200.261 170.078H200.272C200.355 170.138 200.45 170.114 200.498 170.031L198.445 173.312L200.189 169.913V169.924Z" fill="#1E2129"/>
<path opacity="0.2" d="M203.441 172.175C203.441 172.175 203.453 172.258 203.488 172.293C203.56 172.364 203.678 172.353 203.726 172.27L203.845 172.092L201.756 175.42L203.441 172.175Z" fill="#1E2129"/>
<path opacity="0.2" d="M196.071 169.403C196.048 169.51 196.071 169.605 196.166 169.664C196.214 169.699 196.285 169.699 196.356 169.688C196.416 169.664 196.463 169.64 196.487 169.581L196.582 169.403L194.932 172.957L196.06 169.403H196.071Z" fill="#1E2129"/>
<path opacity="0.7" d="M291.354 101.805C292.79 96.0607 302.071 89.5698 305.346 93.5259C308.621 97.4821 301.43 101.805 291.354 101.805Z" fill="white"/>
<path opacity="0.7" d="M301.465 107.55C307.945 104.411 318.934 100.692 320.156 106.484C321.379 112.276 311.683 115.379 301.465 107.55Z" fill="white"/>
<path opacity="0.7" d="M159.936 202.782C156.542 201.277 149.789 203.338 150.478 206.477C151.166 209.616 156.067 207.733 159.936 202.782Z" fill="white"/>
<path opacity="0.7" d="M158.891 209.948C154.856 211.926 148.792 215.894 151.189 218.725C153.587 221.556 158.832 217.978 158.891 209.948Z" fill="white"/>
<path d="M176.01 195.75C173.593 199.267 174.491 204.074 178.015 206.486C181.539 208.898 186.356 208.002 188.772 204.485L197.786 191.366C200.203 187.848 199.305 183.041 195.781 180.629C192.256 178.217 187.44 179.113 185.023 182.63L176.01 195.75Z" fill="#5973AD"/>
<path d="M200.579 186.826L188.237 178.379L189.976 175.849C190.466 175.136 191.439 174.955 192.154 175.444L201.902 182.115C202.616 182.604 202.798 183.576 202.308 184.289L200.569 186.819L200.579 186.826Z" fill="#D7F0FF"/>
<path d="M184.814 184.894L195.747 192.377C196.73 193.05 198.075 192.8 198.749 191.818L201.803 187.373C202.478 186.392 202.227 185.05 201.243 184.376L190.311 176.894C189.327 176.221 187.983 176.471 187.308 177.453L184.254 181.897C183.58 182.879 183.83 184.221 184.814 184.894Z" fill="#7389DA"/>
<path opacity="0.2" d="M461.923 275.485C455.42 275.745 448.929 275.84 442.425 275.852C441.963 275.769 441.512 275.698 441.084 275.615C434.617 274.466 428.066 273.957 421.551 273.187C416.317 272.571 410.965 271.647 405.696 272.227C402.575 272.571 397.84 273.53 395.561 276.195C390.992 276.669 383.813 277.534 383.646 283.29C383.587 285.304 384.299 286.69 386.056 287.685C388.488 289.059 391.954 289.497 394.624 290.231C397.828 291.108 400.866 291.949 404.213 292.067C410.906 292.292 417.658 291.878 424.363 291.984C430.973 292.091 437.619 292.186 444.205 291.404C447.979 290.966 453.782 290.598 456.832 287.649C459.621 286.251 462.291 284.688 464.866 282.911C468.498 280.412 465.792 275.331 461.911 275.485H461.923Z" fill="black"/>
<path d="M383.326 285.434L362.724 286.429C362.25 286.441 361.799 286.382 361.372 286.263C361.087 286.192 360.814 286.097 360.565 285.967C360.327 285.861 360.114 285.742 359.9 285.6C358.654 284.771 357.811 283.385 357.74 281.786C357.681 280.495 358.12 279.299 358.903 278.398C359.437 277.771 360.126 277.273 360.921 276.989H360.944C361.395 276.823 361.882 276.716 362.392 276.693L382.875 275.71C385.059 275.603 386.91 277.285 387.017 279.464L387.112 281.336C387.219 283.515 385.533 285.363 383.35 285.47L383.326 285.434Z" fill="#1E4A56"/>
<path d="M369.762 284.321C369.667 284.072 369.584 283.811 369.489 283.563C369.465 284.321 369.454 285.091 369.477 285.849C369.477 285.932 369.477 286.003 369.465 286.086L365.881 286.263C364.718 283.207 363.567 280.08 363.259 276.799C363.259 276.74 363.259 276.681 363.259 276.61L365.715 276.491C365.917 278.529 366.451 280.471 367.092 282.39C367.199 280.448 367.412 278.505 367.757 276.586C367.757 276.527 367.78 276.456 367.804 276.397L370.759 276.255C370.961 276.48 371.079 276.788 371.115 277.119C371.376 279.784 372.041 282.449 373.026 284.949C373.156 285.268 373.204 285.612 373.109 285.932L370.664 286.05C370.249 285.564 370.011 284.96 369.762 284.333V284.321Z" fill="#3E6F84"/>
<path d="M367.092 286.216L364.137 286.358C364.006 284.688 364.03 283.006 364.173 281.348C363.912 279.784 363.793 278.185 363.828 276.598L366.546 276.468C366.107 278.019 365.822 279.607 365.656 281.206C365.953 282.911 366.427 284.593 367.092 286.216Z" fill="#24535E"/>
<path d="M374.461 285.861C374.153 285.458 373.868 285.043 373.607 284.617C373.607 285.043 373.631 285.47 373.654 285.896L372.195 285.979C372.195 285.944 372.171 285.896 372.171 285.861C372.088 284.463 372.088 283.065 372.159 281.668C371.518 279.938 371.162 278.114 371.115 276.255L372.598 276.183C372.598 276.456 372.622 276.728 372.634 277.001C372.681 276.728 372.717 276.456 372.764 276.172L374.283 276.101C373.951 277.865 373.749 279.666 373.654 281.454C374.224 282.911 375.031 284.273 376.028 285.493C376.111 285.588 376.158 285.695 376.182 285.79L374.461 285.872V285.861Z" fill="#24535E"/>
<path d="M369.335 286.109L367.851 286.18C367.614 282.911 367.792 279.607 368.397 276.373L369.916 276.302C369.916 276.302 369.916 276.337 369.916 276.361C369.299 279.571 369.109 282.84 369.347 286.109H369.335Z" fill="#24535E"/>
<path opacity="0.1" d="M387.041 280.365L357.728 281.774C357.598 279.085 359.675 276.788 362.38 276.657L382.863 275.674C385.047 275.568 386.898 277.249 387.005 279.429L387.053 280.365H387.041Z" fill="black"/>
<path d="M377.405 295.502L385.498 280.436L375.992 266.222C375.648 265.713 376.147 265.061 376.728 265.251L386.376 268.484L393.105 270.735L396.202 271.777L396.986 288.028L394.007 289.355L387.527 292.245L378.235 296.391C377.678 296.639 377.12 296.035 377.405 295.502Z" fill="#3E6F84"/>
<path d="M387.243 281.371C387.421 281.052 387.492 280.696 387.48 280.341C387.468 279.986 387.349 279.642 387.148 279.346L379.802 268.366L394.292 273.222L394.944 286.784L380.988 293.003L387.243 281.371Z" fill="#558CA5"/>
<path d="M460.582 284.984L400.249 284.617C400.249 284.617 398.457 283.077 398.303 279.82C398.148 276.574 399.786 274.857 399.786 274.857L459.811 268.721L474.111 275.781C474.277 275.864 474.36 276.018 474.372 276.172C474.384 276.326 474.313 276.491 474.159 276.586L460.606 284.984H460.582Z" fill="#AEC8CE"/>
<path d="M400.261 279.737C400.19 278.304 400.57 277.297 400.866 276.74L459.432 270.747L470.777 276.349L460.013 283.006L401.151 282.651C400.807 282.13 400.332 281.17 400.261 279.725V279.737Z" fill="#C7DCE0"/>
<path opacity="0.05" d="M474.349 276.172L398.291 279.82C398.137 276.574 399.774 274.857 399.774 274.857L459.799 268.721L474.099 275.781C474.266 275.864 474.349 276.018 474.361 276.172H474.349Z" fill="black"/>
<path opacity="0.1" d="M387.527 292.257L392.238 280.116L386.376 268.484L393.105 270.747L396.238 272.666L399.834 274.869L403.323 279.583L400.308 284.617L396.938 287.152L393.995 289.367L387.527 292.257Z" fill="black"/>
<path opacity="0.1" d="M396.582 279.903L385.498 280.436L375.992 266.222C375.648 265.713 376.147 265.061 376.728 265.251L386.376 268.484L393.105 270.735L396.202 271.777L396.594 279.903H396.582Z" fill="black"/>
<path d="M388.726 292.885L393.722 280.045L387.515 267.75C387.231 267.17 387.883 266.577 388.429 266.909L401.305 274.798L404.794 279.524L401.768 284.558L389.699 293.643C389.189 294.033 388.477 293.5 388.714 292.896L388.726 292.885Z" fill="#558CA5"/>
<path d="M399.952 276.278L402.433 279.63L400.285 283.207L392.262 289.248L395.562 280.767C395.668 280.507 395.704 280.234 395.692 279.962C395.68 279.689 395.609 279.417 395.479 279.168L391.384 271.043L399.952 276.278Z" fill="#6D9DAD"/>
<path d="M378.745 284.025C380.548 284.025 382.009 282.566 382.009 280.767C382.009 278.968 380.548 277.51 378.745 277.51C376.943 277.51 375.482 278.968 375.482 280.767C375.482 282.566 376.943 284.025 378.745 284.025Z" fill="#3E6F84"/>
<path opacity="0.2" d="M378.9 284.013C377.108 284.096 375.577 282.71 375.482 280.921L381.997 280.613C382.08 282.402 380.692 283.93 378.9 284.025V284.013Z" fill="black"/>
<path d="M378.745 282.39C379.643 282.39 380.371 281.664 380.371 280.767C380.371 279.871 379.643 279.145 378.745 279.145C377.848 279.145 377.12 279.871 377.12 280.767C377.12 281.664 377.848 282.39 378.745 282.39Z" fill="#00FFFF"/>
<path opacity="0.2" d="M380.371 280.684L378.746 280.767L378.663 279.145C379.553 279.097 380.324 279.796 380.371 280.696V280.684Z" fill="black"/>
<path opacity="0.2" d="M378.829 282.39C377.938 282.437 377.167 281.739 377.12 280.838L378.745 280.756L378.829 282.378V282.39Z" fill="black"/>
<path d="M372.23 282.698C373.128 282.698 373.856 281.972 373.856 281.075C373.856 280.179 373.128 279.453 372.23 279.453C371.332 279.453 370.604 280.179 370.604 281.075C370.604 281.972 371.332 282.698 372.23 282.698Z" fill="#3E6F84"/>
<path opacity="0.2" d="M372.313 282.698C371.423 282.745 370.652 282.047 370.604 281.146L373.856 280.992C373.904 281.881 373.203 282.651 372.302 282.698H372.313Z" fill="black"/>
<path d="M372.23 281.893C372.683 281.893 373.049 281.527 373.049 281.075C373.049 280.624 372.683 280.258 372.23 280.258C371.778 280.258 371.412 280.624 371.412 281.075C371.412 281.527 371.778 281.893 372.23 281.893Z" fill="#00FFFF"/>
<path opacity="0.2" d="M373.049 281.04L372.23 281.075L372.195 280.258C372.646 280.234 373.026 280.59 373.049 281.028V281.04Z" fill="black"/>
<path opacity="0.2" d="M372.266 281.893C371.815 281.916 371.435 281.561 371.412 281.123L372.23 281.087L372.266 281.904V281.893Z" fill="black"/>
<path opacity="0.1" d="M404.806 279.512L393.722 280.045L387.515 267.75C387.231 267.17 387.883 266.577 388.429 266.909L401.305 274.798L404.794 279.524L404.806 279.512Z" fill="black"/>
<path opacity="0.15" d="M404.367 278.031C406.883 279.559 404.237 282.248 407.346 280.933C410.455 279.618 409.897 279.026 409.897 279.026C409.897 279.026 417.065 279.109 416.329 280.838C415.594 282.568 420.044 282.71 420.483 281.146C420.922 279.583 424.601 276.977 423.841 277.095C423.082 277.214 428.41 274.229 428.41 274.229L418.928 276.041C415.772 276.645 406.254 274.253 404.878 275.97C403.501 277.688 404.355 278.031 404.355 278.031H404.367Z" fill="black"/>
<path opacity="0.15" d="M425.716 277.048C429.265 278.233 432.552 279.666 436.361 279.974C440.171 280.282 447.339 279.382 446.579 278.659C445.82 277.936 450.78 278.541 457.022 277.534C463.264 276.527 464.546 275.046 463.988 274.869C463.431 274.691 465.662 273.779 459.016 274.549C452.37 275.319 440.634 275.26 439.186 275.745C437.738 276.231 430.083 275.236 430.083 275.236L425.716 277.048Z" fill="black"/>
<path opacity="0.15" d="M423.699 280.365C425.088 280.755 427.461 280.211 425.883 281.869C424.304 283.527 421.931 283.03 421.729 282.888C421.527 282.745 423.699 280.365 423.699 280.365Z" fill="black"/>
<path opacity="0.15" d="M411.832 280.021C412.828 281.798 411.832 282.888 412.33 282.343C412.828 281.798 410.704 280.886 410.704 280.886L411.832 280.021Z" fill="black"/>
<path opacity="0.15" d="M447.635 280.104C445.997 281.857 445.012 281.857 445.321 282.556C445.63 283.255 449.19 282.094 449.19 282.094L448.169 280.981L447.635 280.104Z" fill="black"/>
<path d="M455.278 268.769C452.62 266.862 450.329 264.339 448.846 261.532C448.68 261.235 448.537 260.939 448.395 260.631C446.994 257.564 446.603 253.927 447.623 250.966C448.229 249.177 449.344 247.65 451.053 246.631C454.91 244.345 460.535 243.989 465.057 244.309L463.775 239.773L454.103 237.653L454.435 234.561C452.287 234.952 450.068 235.047 447.956 234.774C442.687 234.099 437.465 230.747 437.394 226.068C437.346 222.029 439.862 217.576 442.366 214.33C442.449 214.224 442.52 214.117 442.604 214.022C443.565 212.802 444.645 211.618 445.903 210.623L446.021 210.729L446.247 210.362H446.259L447.588 208.136L448.086 200.626H447.837C446.271 201.716 444.526 202.58 442.734 203.078C442.592 203.113 442.449 203.149 442.307 203.184C439.079 203.978 435.448 203.516 433.395 201.526C432.908 201.052 432.504 200.496 432.22 199.844C432.03 199.418 431.875 198.968 431.769 198.494C431.472 197.345 431.365 196.101 431.401 194.834C431.436 192.88 431.804 190.89 432.267 189.172C432.718 187.502 433.335 185.832 434.368 184.375L429.443 182.646L428.659 185.346L426.654 183.83L425.479 183.179L426.82 182.894L430.131 176.877L426.049 173.122L421.254 174.757L416.828 178.251L418.454 179.969C419.142 180.158 419.795 180.502 420.388 180.964C421.112 181.509 421.729 182.219 422.204 183.001C422.643 183.735 422.951 184.541 423.058 185.334C423.295 187.052 422.524 188.947 420.768 189.433C420.708 189.456 420.637 189.468 420.578 189.48C419.225 189.752 417.611 189.492 416.211 189.077C415.855 188.971 415.522 188.852 415.202 188.734C414.407 188.438 413.612 188.059 412.971 187.538L411.025 188.213L410.977 188.521C413.078 190.475 414.668 192.951 415.344 195.509C415.51 196.113 415.617 196.741 415.653 197.369C415.76 198.719 415.582 200.093 415.131 201.325C414.419 203.232 413.03 204.807 410.906 205.53C409.933 205.861 408.877 206.075 407.773 206.181L408.972 209.687L411.25 210.078L406.895 214.413L409.304 222.408C411.369 222.254 413.481 222.693 415.119 223.688C417.385 225.073 418.869 227.869 417.552 230.392C416.673 232.097 415 233.614 413.303 234.798H413.291C412.757 235.177 412.211 235.521 411.689 235.828C410.87 236.302 410.016 236.741 409.138 237.025L405.791 241.431C410.609 241.561 415.582 244.949 418.584 249.414C419.213 250.338 419.747 251.31 420.174 252.304C420.317 252.636 420.447 252.956 420.566 253.288C420.602 253.382 420.637 253.489 420.673 253.584C422.239 258.191 421.325 263.853 417.065 265.831C414.703 266.921 411.749 267.217 408.877 267.075C407.132 267.004 405.435 266.779 403.904 266.483C402.195 266.151 400.486 265.677 398.92 264.931L403.774 276.278L404.32 277.546L412.01 278.718L423.497 276.906L429.015 276.716L436.99 277.96L442.342 277.167L449.427 277.605L457.924 275.058L461.057 274.869L463.822 272.275C461.84 272.038 459.823 271.374 457.924 270.38C457.01 269.906 456.132 269.361 455.29 268.757L455.278 268.769ZM420.53 192.619L420.566 192.252L420.72 192.346L420.53 192.631V192.619ZM419.818 197.831L419.842 197.878L419.806 197.866V197.831H419.818ZM426.12 204.452L426.345 204.653L426.096 204.535L426.12 204.452Z" fill="#FF792E"/>
<path d="M430.891 172.815L434.344 174.947L438.735 175.752L439.115 171.879L438.759 168.456L436.433 166.549L431.081 167.958L430.891 172.815Z" fill="#FF792E"/>
<path d="M427.295 167.52L427.71 166.987L427.295 165.72L425.669 163.706L424.15 164.203L423.248 166.963L425.349 168.444L427.295 167.52Z" fill="#FF792E"/>
<path d="M431.899 161.278L432.433 160.105L431.804 159.229L431.496 159.075L430.902 159.394L430.06 160.378L430.439 161.088L431.899 161.278Z" fill="#FF792E"/>
<path d="M417.658 171.938L418.192 170.765L417.563 169.889L417.255 169.735L416.661 170.055L415.819 171.038L416.199 171.748L417.658 171.938Z" fill="#FF792E"/>
<path opacity="0.3" d="M430.262 321.253C476.501 321.253 513.986 273.567 513.986 214.745C513.986 155.922 476.501 108.237 430.262 108.237C384.022 108.237 346.538 155.922 346.538 214.745C346.538 273.567 384.022 321.253 430.262 321.253Z" fill="url(#paint0_radial_11840_177048)"/>
<path opacity="0.3" d="M432.723 289.501C451.779 288.224 466.656 278.708 465.953 268.245C465.249 257.782 449.231 250.335 430.175 251.612C411.119 252.889 396.242 262.405 396.945 272.868C397.649 283.331 413.667 290.778 432.723 289.501Z" fill="url(#paint1_radial_11840_177048)"/>
<path d="M458.779 270.818C458.494 270.688 458.197 270.545 457.912 270.391C457.188 270.024 456.5 269.598 455.824 269.136C455.634 269.017 455.456 268.899 455.278 268.769C452.62 266.862 450.329 264.339 448.846 261.532C448.68 261.235 448.537 260.939 448.395 260.631C446.994 257.564 446.603 253.927 447.623 250.966C448.229 249.177 449.344 247.65 451.053 246.631C454.91 244.345 460.535 243.989 465.057 244.309L463.775 239.773L454.103 237.653L454.435 234.561C452.287 234.952 450.068 235.047 447.956 234.774C442.687 234.099 437.465 230.747 437.394 226.068C437.346 222.029 439.862 217.576 442.366 214.33C442.449 214.224 442.52 214.117 442.604 214.022C443.565 212.802 444.645 211.618 445.903 210.623L446.021 210.729L446.247 210.362H446.259L447.588 208.136L448.086 200.626H447.837C446.271 201.716 444.526 202.58 442.734 203.078C442.592 203.113 442.449 203.149 442.307 203.184C439.079 203.978 435.448 203.516 433.395 201.526C432.908 201.052 432.504 200.496 432.22 199.844C432.03 199.418 431.875 198.968 431.769 198.494C431.472 197.345 431.365 196.101 431.401 194.834C431.436 192.88 431.804 190.89 432.267 189.172C432.718 187.502 433.335 185.832 434.368 184.375L429.443 182.646L428.659 185.346L426.654 183.83L425.479 183.179L426.82 182.894L430.131 176.877L426.049 173.122L421.254 174.757L416.828 178.251L418.454 179.969C419.142 180.158 419.795 180.502 420.388 180.964C421.112 181.509 421.729 182.219 422.204 183.001C422.643 183.735 422.951 184.541 423.058 185.334C423.295 187.052 422.524 188.947 420.768 189.433C420.708 189.456 420.637 189.468 420.578 189.48C419.225 189.752 417.611 189.492 416.211 189.077C415.855 188.971 415.522 188.852 415.202 188.734C414.407 188.438 413.612 188.059 412.971 187.538L411.025 188.213L410.977 188.521C413.078 190.475 414.668 192.951 415.344 195.509C415.51 196.113 415.617 196.741 415.653 197.369C415.76 198.719 415.582 200.093 415.131 201.325C414.419 203.232 413.03 204.807 410.906 205.53C409.933 205.861 408.877 206.075 407.773 206.181L408.972 209.687L411.25 210.078L406.895 214.413L409.304 222.408C411.369 222.254 413.481 222.693 415.119 223.688C417.385 225.073 418.869 227.869 417.552 230.392C416.673 232.097 415 233.614 413.303 234.798C413.303 234.81 413.291 234.81 413.291 234.81C412.757 235.189 412.211 235.532 411.689 235.84C410.87 236.314 410.016 236.752 409.138 237.037L405.791 241.443C410.609 241.573 415.582 244.961 418.584 249.426C419.213 250.35 419.747 251.321 420.174 252.316C420.317 252.648 420.447 252.968 420.566 253.299C420.602 253.394 420.637 253.501 420.673 253.596C422.239 258.203 421.325 263.865 417.065 265.843C414.703 266.933 411.749 267.229 408.877 267.087C407.132 267.016 405.435 266.791 403.904 266.494C402.195 266.163 400.486 265.689 398.92 264.943L403.026 274.537L403.774 276.29L403.833 276.432L404.32 277.557L412.01 278.73L423.497 276.906H423.901L429.015 276.716L432.16 277.214L436.99 277.972L442.331 277.178L449.415 277.617L457.912 275.07L461.045 274.881L463.371 272.689L463.81 272.287C463.122 272.204 462.434 272.073 461.746 271.884C460.749 271.623 459.752 271.268 458.779 270.818ZM426.108 204.452L426.333 204.653L426.084 204.535L426.108 204.452ZM420.566 192.252L420.72 192.346L420.53 192.619L420.566 192.252ZM419.818 197.831L419.842 197.878H419.806L419.818 197.831Z" fill="url(#paint2_linear_11840_177048)"/>
<path d="M450.294 274.975C450.294 274.975 448.229 276.859 448.229 274.478C446.472 273.85 445.072 273.317 443.98 272.82C443.672 272.677 443.399 272.547 443.138 272.417C442.331 272.002 441.725 271.623 441.275 271.197C441.085 271.031 440.919 270.853 440.788 270.676C440.052 269.787 439.922 268.769 439.922 267.312C439.922 264.564 440.705 262.207 442.046 260.489C443.043 259.198 444.336 258.262 445.855 257.753L443.767 256.391L442.319 255.443L443.529 253.145L444.123 252.044C443.933 251.997 443.755 251.961 443.565 251.914C443.517 251.902 443.482 251.89 443.434 251.878C442.9 251.76 442.378 251.617 441.88 251.452C440.824 251.132 439.862 250.705 439.103 250.149C438.011 249.379 437.346 248.325 437.477 246.88C437.714 244.297 439.601 241.632 441.393 239.725C441.429 239.69 441.453 239.666 441.488 239.642C441.512 239.607 441.547 239.583 441.571 239.548C442.248 238.837 443.019 238.15 443.873 237.605L442.96 236.61L442.26 236.385L440.859 235.935L440.456 235.805L438.794 235.272L433.561 233.59H433.549L430.784 229.942L428.126 226.412C428.126 226.412 427.841 229.278 427.141 231.801C426.773 233.14 426.286 234.383 425.681 235.047L425.645 235.082C424.138 236.693 421.765 237.202 420.293 237.356C419.522 237.439 419 237.428 419 237.428L419.083 237.83L419.996 242.675C421.302 242.71 422.607 243.125 423.569 243.871C424.921 244.902 425.669 246.785 424.672 248.301C424.162 249.083 423.367 249.782 422.5 250.326C423.201 250.883 423.853 251.475 424.47 252.103L424.577 252.151H424.53C424.53 252.151 424.625 252.257 424.672 252.316C425.835 253.548 426.915 254.993 427.663 256.58C428.826 259.044 429.182 261.828 427.71 264.67C426.44 267.122 424.197 268.994 421.658 270.237C417.789 272.121 413.268 272.547 410.609 271.446L411.571 273.661L412.342 275.461L412.389 275.556L413.161 277.356L413.196 277.451L415.522 277.617L419.747 276.432L423.901 276.894L430.428 277.617L432.16 277.214L434.57 276.645L438.735 276.432L449.416 277.617L452.976 276.432C452.311 276.278 450.935 275.283 450.294 274.975Z" fill="#FFE5C0"/>
<path opacity="0.6" d="M458.779 270.818L443.137 272.417L412.389 275.556L403.833 276.432L403.774 276.29L403.026 274.537L411.57 273.661L440.788 270.676L455.824 269.136C456.5 269.598 457.188 270.024 457.912 270.391C458.197 270.545 458.494 270.687 458.779 270.818Z" fill="url(#paint3_linear_11840_177048)"/>
<path opacity="0.6" d="M463.811 272.287L463.371 272.689L461.746 271.884C462.434 272.073 463.122 272.204 463.811 272.287Z" fill="url(#paint4_linear_11840_177048)"/>
<path opacity="0.6" d="M463.371 272.689L461.045 274.881L457.912 275.07L449.415 277.617L442.331 277.178L436.99 277.972L432.16 277.214L430.428 277.617L423.901 276.894L423.497 276.906L412.01 278.73L404.32 277.557L403.833 276.432L412.389 275.556L443.138 272.417L458.779 270.818L459.431 270.747L461.746 271.884L463.371 272.689Z" fill="url(#paint5_linear_11840_177048)"/>
<path opacity="0.6" d="M495.128 138.275C493.36 138.607 493.597 141.402 495.377 141.083C497.158 140.763 496.908 137.956 495.128 138.275Z" fill="#F98130"/>
<path opacity="0.6" d="M468.545 173.312C466.765 173.644 467.655 176.321 469.412 175.989C471.168 175.657 470.302 172.98 468.545 173.312Z" fill="#F98130"/>
<g opacity="0.8">
<path opacity="0.15" d="M405.162 252.376C401.032 254.2 405.15 262.752 409.28 260.927C413.41 259.103 409.292 250.551 405.162 252.376Z" fill="url(#paint6_radial_11840_177048)"/>
<path d="M406.693 255.562C406.563 255.621 406.646 257.327 406.646 257.327C406.646 257.327 407.465 257.895 407.761 257.765C408.188 257.575 407.12 255.384 406.681 255.562H406.693Z" fill="white"/>
</g>
<g opacity="0.8">
<path opacity="0.15" d="M399.466 249.651C396.297 250.137 397.579 257.031 400.748 256.545C403.916 256.059 402.635 249.166 399.466 249.651Z" fill="url(#paint7_radial_11840_177048)"/>
<path d="M399.929 252.293C399.466 252.364 399.81 253.986 400.273 253.915C400.736 253.844 400.392 252.222 399.929 252.293Z" fill="white"/>
</g>
<g opacity="0.8">
<path opacity="0.15" d="M428.98 158.873C424.969 159.489 426.547 167.899 430.558 167.283C434.569 166.667 432.991 158.257 428.98 158.873Z" fill="url(#paint8_radial_11840_177048)"/>
<path d="M429.597 162.273C429.134 162.344 429.478 163.967 429.941 163.895C430.404 163.824 430.06 162.202 429.597 162.273Z" fill="white"/>
</g>
<g opacity="0.8">
<path opacity="0.15" d="M457.497 154.135C453.486 154.716 454.993 163.149 459.004 162.557C463.016 161.965 461.508 153.543 457.497 154.135Z" fill="url(#paint9_radial_11840_177048)"/>
<path d="M458.091 157.535C457.616 157.606 457.948 159.229 458.423 159.158C458.898 159.087 458.566 157.464 458.091 157.535Z" fill="white"/>
</g>
<g opacity="0.8">
<path opacity="0.15" d="M432.065 219.21C429.633 219.21 429.799 227.762 432.232 227.762C434.664 227.762 434.498 219.21 432.065 219.21Z" fill="url(#paint10_radial_11840_177048)"/>
<path d="M432.101 222.669C431.626 222.669 431.733 224.327 432.196 224.327C432.659 224.327 432.564 222.669 432.101 222.669Z" fill="white"/>
</g>
<g opacity="0.8">
<path opacity="0.15" d="M407.761 190.345C404.663 190.819 405.969 197.89 409.066 197.416C412.164 196.942 410.858 189.871 407.761 190.345Z" fill="url(#paint11_radial_11840_177048)"/>
<path d="M408.235 193.069C407.773 193.14 408.117 194.763 408.58 194.692C409.042 194.621 408.698 192.998 408.235 193.069Z" fill="white"/>
</g>
<g opacity="0.8">
<path opacity="0.15" d="M446.425 260.762C443.968 259.684 441.536 265.689 443.992 266.767C446.449 267.845 448.882 261.839 446.425 260.762Z" fill="url(#paint12_radial_11840_177048)"/>
<path d="M445.487 262.988C445.06 262.799 444.479 264.362 444.906 264.54C445.333 264.718 445.915 263.166 445.487 262.988Z" fill="white"/>
</g>
<g opacity="0.8">
<path opacity="0.15" d="M443.838 201.514C446.128 202.32 448.857 194.159 446.567 193.341C444.277 192.524 441.547 200.697 443.838 201.514Z" fill="url(#paint13_radial_11840_177048)"/>
<path d="M444.775 198.707C445.072 198.814 446.923 195.841 446.923 195.841C446.923 195.841 445.737 196.255 445.559 196.196C445.084 196.03 444.301 198.541 444.775 198.707Z" fill="white"/>
</g>
<path opacity="0.6" d="M486.441 217.576C484.661 217.907 485.338 220.632 487.118 220.312C488.898 219.992 488.222 217.256 486.441 217.576Z" fill="#F98130"/>
<path opacity="0.6" d="M380.739 120.935C378.959 121.266 379.588 124.002 381.368 123.683C383.148 123.363 382.519 120.615 380.739 120.935Z" fill="#F98130"/>
<path opacity="0.6" d="M445.844 128.148C444.063 128.48 444.431 131.263 446.211 130.943C447.991 130.624 447.624 127.828 445.844 128.148Z" fill="#F98130"/>
<path opacity="0.4" d="M383.219 99.4009C382.626 99.5075 382.721 100.443 383.314 100.337C383.908 100.23 383.813 99.2943 383.219 99.4009Z" fill="#FF4729"/>
<path opacity="0.4" d="M402.088 59.1881C401.495 59.2947 401.685 60.2186 402.278 60.112C402.872 60.0054 402.682 59.0815 402.088 59.1881Z" fill="#FF4729"/>
<path opacity="0.4" d="M387.67 144.743C387.077 144.849 387.243 145.773 387.836 145.666C388.429 145.56 388.263 144.636 387.67 144.743Z" fill="#FF4729"/>
<path opacity="0.4" d="M454.673 114.681C454.079 114.787 454.162 115.723 454.756 115.616C455.349 115.51 455.266 114.574 454.673 114.681Z" fill="#FF4729"/>
<path opacity="0.4" d="M417.492 100.846C416.899 100.953 417.172 101.853 417.753 101.746C418.335 101.64 418.074 100.739 417.492 100.846Z" fill="#FF4729"/>
<path opacity="0.4" d="M486.168 154.183C485.587 154.289 485.622 155.225 486.216 155.119C486.809 155.012 486.762 154.076 486.168 154.183Z" fill="#FF4729"/>
<path opacity="0.4" d="M474.42 64.4235C473.826 64.5301 474.088 65.4303 474.681 65.3237C475.274 65.2171 475.013 64.3169 474.42 64.4235Z" fill="#FF4729"/>
<path opacity="0.4" d="M439.613 181.674C439.019 181.781 439.138 182.717 439.731 182.61C440.325 182.504 440.206 181.568 439.613 181.674Z" fill="#FF4729"/>
<path opacity="0.4" d="M395.846 229.728C395.253 229.835 395.49 230.747 396.084 230.64C396.677 230.534 396.44 229.622 395.846 229.728Z" fill="#FF4729"/>
<path opacity="0.4" d="M383.469 215.858C382.875 215.965 382.97 216.901 383.564 216.794C384.157 216.687 384.062 215.752 383.469 215.858Z" fill="#FF4729"/>
<path opacity="0.4" d="M477.197 210.386C476.604 210.493 476.71 211.428 477.304 211.322C477.897 211.215 477.79 210.279 477.197 210.386Z" fill="#FF4729"/>
</g>
<defs>
<radialGradient id="paint0_radial_11840_177048" cx="0" cy="0" r="1" gradientUnits="userSpaceOnUse" gradientTransform="translate(428.921 215.491) scale(83.3912 106.836)">
<stop stop-color="#FBB03B"/>
<stop offset="0.06" stop-color="#FBB13F" stop-opacity="0.85"/>
<stop offset="0.16" stop-color="#FBB345" stop-opacity="0.65"/>
<stop offset="0.26" stop-color="#FBB54A" stop-opacity="0.48"/>
<stop offset="0.36" stop-color="#FBB64F" stop-opacity="0.33"/>
<stop offset="0.47" stop-color="#FBB752" stop-opacity="0.21"/>
<stop offset="0.58" stop-color="#FBB855" stop-opacity="0.12"/>
<stop offset="0.7" stop-color="#FBB957" stop-opacity="0.05"/>
<stop offset="0.83" stop-color="#FBB958" stop-opacity="0.01"/>
<stop offset="1" stop-color="#FBBA59" stop-opacity="0"/>
</radialGradient>
<radialGradient id="paint1_radial_11840_177048" cx="0" cy="0" r="1" gradientUnits="userSpaceOnUse" gradientTransform="translate(431.509 271.613) rotate(-4.28186) scale(33.7859 17.8728)">
<stop stop-color="#FBE072"/>
<stop offset="0.06" stop-color="#FBDD75" stop-opacity="0.85"/>
<stop offset="0.16" stop-color="#FBDA78" stop-opacity="0.65"/>
<stop offset="0.26" stop-color="#FBD87C" stop-opacity="0.48"/>
<stop offset="0.36" stop-color="#FBD57F" stop-opacity="0.33"/>
<stop offset="0.47" stop-color="#FBD481" stop-opacity="0.21"/>
<stop offset="0.58" stop-color="#FBD283" stop-opacity="0.12"/>
<stop offset="0.7" stop-color="#FBD184" stop-opacity="0.05"/>
<stop offset="0.83" stop-color="#FBD185" stop-opacity="0.01"/>
<stop offset="1" stop-color="#FBD186" stop-opacity="0"/>
</radialGradient>
<linearGradient id="paint2_linear_11840_177048" x1="435.281" y1="289.45" x2="432.03" y2="254.992" gradientUnits="userSpaceOnUse">
<stop stop-color="#FFF099"/>
<stop offset="0.1" stop-color="#FFF284" stop-opacity="0.85"/>
<stop offset="0.29" stop-color="#FFF661" stop-opacity="0.6"/>
<stop offset="0.47" stop-color="#FFF944" stop-opacity="0.38"/>
<stop offset="0.63" stop-color="#FFFB2D" stop-opacity="0.22"/>
<stop offset="0.78" stop-color="#FFFD1D" stop-opacity="0.1"/>
<stop offset="0.91" stop-color="#FFFE13" stop-opacity="0.03"/>
<stop offset="1" stop-color="#FFFF10" stop-opacity="0"/>
</linearGradient>
<linearGradient id="paint3_linear_11840_177048" x1="458.233" y1="267.797" x2="403.566" y2="277.594" gradientUnits="userSpaceOnUse">
<stop stop-color="white"/>
<stop offset="0.18" stop-color="white" stop-opacity="0.88"/>
<stop offset="0.56" stop-color="white" stop-opacity="0.58"/>
<stop offset="1" stop-color="white" stop-opacity="0.2"/>
</linearGradient>
<linearGradient id="paint4_linear_11840_177048" x1="463.514" y1="272.109" x2="462.066" y2="272.37" gradientUnits="userSpaceOnUse">
<stop stop-color="white"/>
<stop offset="0.18" stop-color="white" stop-opacity="0.88"/>
<stop offset="0.56" stop-color="white" stop-opacity="0.58"/>
<stop offset="1" stop-color="white" stop-opacity="0.2"/>
</linearGradient>
<linearGradient id="paint5_linear_11840_177048" x1="409.731" y1="279.737" x2="451.998" y2="272.913" gradientUnits="userSpaceOnUse">
<stop stop-color="white"/>
<stop offset="0.18" stop-color="white" stop-opacity="0.88"/>
<stop offset="0.56" stop-color="white" stop-opacity="0.58"/>
<stop offset="1" stop-color="white" stop-opacity="0.2"/>
</linearGradient>
<radialGradient id="paint6_radial_11840_177048" cx="0" cy="0" r="1" gradientUnits="userSpaceOnUse" gradientTransform="translate(375.745 261.764) rotate(-9.74175) scale(3.49984 4.60654)">
<stop stop-color="#FBFFCF"/>
<stop offset="0.08" stop-color="#FBF4BD" stop-opacity="0.85"/>
<stop offset="0.24" stop-color="#FBE39F" stop-opacity="0.6"/>
<stop offset="0.38" stop-color="#FBD486" stop-opacity="0.38"/>
<stop offset="0.52" stop-color="#FBC972" stop-opacity="0.22"/>
<stop offset="0.64" stop-color="#FBC064" stop-opacity="0.1"/>
<stop offset="0.75" stop-color="#FBBB5C" stop-opacity="0.03"/>
<stop offset="0.82" stop-color="#FBBA59" stop-opacity="0"/>
</radialGradient>
<radialGradient id="paint7_radial_11840_177048" cx="0" cy="0" r="1" gradientUnits="userSpaceOnUse" gradientTransform="translate(367.759 250.315) rotate(5.80898) scale(2.50562 3.40814)">
<stop stop-color="#FBFFCF"/>
<stop offset="0.08" stop-color="#FBF4BD" stop-opacity="0.85"/>
<stop offset="0.24" stop-color="#FBE39F" stop-opacity="0.6"/>
<stop offset="0.38" stop-color="#FBD486" stop-opacity="0.38"/>
<stop offset="0.52" stop-color="#FBC972" stop-opacity="0.22"/>
<stop offset="0.64" stop-color="#FBC064" stop-opacity="0.1"/>
<stop offset="0.75" stop-color="#FBBB5C" stop-opacity="0.03"/>
<stop offset="0.82" stop-color="#FBBA59" stop-opacity="0"/>
</radialGradient>
<radialGradient id="paint8_radial_11840_177048" cx="0" cy="0" r="1" gradientUnits="userSpaceOnUse" gradientTransform="translate(414.078 161.06) rotate(5.34985) scale(3.15926 4.14264)">
<stop stop-color="#FBFFCF"/>
<stop offset="0.08" stop-color="#FBF4BD" stop-opacity="0.85"/>
<stop offset="0.24" stop-color="#FBE39F" stop-opacity="0.6"/>
<stop offset="0.38" stop-color="#FBD486" stop-opacity="0.38"/>
<stop offset="0.52" stop-color="#FBC972" stop-opacity="0.22"/>
<stop offset="0.64" stop-color="#FBC064" stop-opacity="0.1"/>
<stop offset="0.75" stop-color="#FBBB5C" stop-opacity="0.03"/>
<stop offset="0.82" stop-color="#FBBA59" stop-opacity="0"/>
</radialGradient>
<radialGradient id="paint9_radial_11840_177048" cx="0" cy="0" r="1" gradientUnits="userSpaceOnUse" gradientTransform="translate(444.646 156.495) rotate(5.809) scale(3.15926 4.14266)">
<stop stop-color="#FBFFCF"/>
<stop offset="0.08" stop-color="#FBF4BD" stop-opacity="0.85"/>
<stop offset="0.24" stop-color="#FBE39F" stop-opacity="0.6"/>
<stop offset="0.38" stop-color="#FBD486" stop-opacity="0.38"/>
<stop offset="0.52" stop-color="#FBC972" stop-opacity="0.22"/>
<stop offset="0.64" stop-color="#FBC064" stop-opacity="0.1"/>
<stop offset="0.75" stop-color="#FBBB5C" stop-opacity="0.03"/>
<stop offset="0.82" stop-color="#FBBA59" stop-opacity="0"/>
</radialGradient>
<radialGradient id="paint10_radial_11840_177048" cx="0" cy="0" r="1" gradientUnits="userSpaceOnUse" gradientTransform="translate(368.222 197.031) rotate(22.711) scale(1.98175 3.95821)">
<stop stop-color="#FBFFCF"/>
<stop offset="0.08" stop-color="#FBF4BD" stop-opacity="0.85"/>
<stop offset="0.24" stop-color="#FBE39F" stop-opacity="0.6"/>
<stop offset="0.38" stop-color="#FBD486" stop-opacity="0.38"/>
<stop offset="0.52" stop-color="#FBC972" stop-opacity="0.22"/>
<stop offset="0.64" stop-color="#FBC064" stop-opacity="0.1"/>
<stop offset="0.75" stop-color="#FBBB5C" stop-opacity="0.03"/>
<stop offset="0.82" stop-color="#FBBA59" stop-opacity="0"/>
</radialGradient>
<radialGradient id="paint11_radial_11840_177048" cx="0" cy="0" r="1" gradientUnits="userSpaceOnUse" gradientTransform="translate(389.476 191.746) rotate(6.49771) scale(2.44675 3.48315)">
<stop stop-color="#FBFFCF"/>
<stop offset="0.08" stop-color="#FBF4BD" stop-opacity="0.85"/>
<stop offset="0.24" stop-color="#FBE39F" stop-opacity="0.6"/>
<stop offset="0.38" stop-color="#FBD486" stop-opacity="0.38"/>
<stop offset="0.52" stop-color="#FBC972" stop-opacity="0.22"/>
<stop offset="0.64" stop-color="#FBC064" stop-opacity="0.1"/>
<stop offset="0.75" stop-color="#FBBB5C" stop-opacity="0.03"/>
<stop offset="0.82" stop-color="#FBBA59" stop-opacity="0"/>
</radialGradient>
<radialGradient id="paint12_radial_11840_177048" cx="0" cy="0" r="1" gradientUnits="userSpaceOnUse" gradientTransform="translate(421.171 244.136) rotate(39.6764) scale(2.10457 3.12482)">
<stop stop-color="#FBFFCF"/>
<stop offset="0.08" stop-color="#FBF4BD" stop-opacity="0.85"/>
<stop offset="0.24" stop-color="#FBE39F" stop-opacity="0.6"/>
<stop offset="0.38" stop-color="#FBD486" stop-opacity="0.38"/>
<stop offset="0.52" stop-color="#FBC972" stop-opacity="0.22"/>
<stop offset="0.64" stop-color="#FBC064" stop-opacity="0.1"/>
<stop offset="0.75" stop-color="#FBBB5C" stop-opacity="0.03"/>
<stop offset="0.82" stop-color="#FBBA59" stop-opacity="0"/>
</radialGradient>
<radialGradient id="paint13_radial_11840_177048" cx="0" cy="0" r="1" gradientUnits="userSpaceOnUse" gradientTransform="translate(504.134 250.001) rotate(-137.644) scale(1.9806 3.99145)">
<stop stop-color="#FBFFCF"/>
<stop offset="0.08" stop-color="#FBF4BD" stop-opacity="0.85"/>
<stop offset="0.24" stop-color="#FBE39F" stop-opacity="0.6"/>
<stop offset="0.38" stop-color="#FBD486" stop-opacity="0.38"/>
<stop offset="0.52" stop-color="#FBC972" stop-opacity="0.22"/>
<stop offset="0.64" stop-color="#FBC064" stop-opacity="0.1"/>
<stop offset="0.75" stop-color="#FBBB5C" stop-opacity="0.03"/>
<stop offset="0.82" stop-color="#FBBA59" stop-opacity="0"/>
</radialGradient>
<clipPath id="clip0_11840_177048">
<rect width="600" height="357" fill="white"/>
</clipPath>
</defs>
</svg>
