<svg width="768" height="454" viewBox="0 0 768 454" fill="none" xmlns="http://www.w3.org/2000/svg">
<path opacity="0.6" d="M767.72 2.68994C758.11 2.69994 747.69 2.99994 737.53 2.99994C704.27 2.99994 607.62 16.9999 513.77 55.4899C470.18 73.3699 501.43 79.3599 549.65 81.5499C531.94 82.1399 514.55 83.5999 498.72 86.3799C472.39 90.9999 447.19 94.6999 425.01 97.6199C383 103.15 351.89 105.85 344.73 106.62C350.47 105.07 372.26 96.58 394.62 87.14C427.92 73.09 462.48 56.9699 447.07 58.6599C420.21 61.5999 362.04 61.9099 326.47 58.6599C296.35 55.8999 253.91 62.3599 187.23 62.4899C151.37 61.3899 107.53 58.1399 97.33 65.3799C87.13 72.6199 150.9 72.6099 187.23 83.2599C198.17 88.8799 205.46 94.2399 206.93 97.1699C207.88 99.0499 206.42 99.9299 201.98 99.2399C200.18 98.9599 197.88 98.42 195.05 97.58C192.75 96.9 190.13 96.3299 187.23 95.8699C149.48 90.0399 74.71 81.79 50.87 89.4C27.03 97.01 143.34 133.77 187.23 144.03C233.46 153.89 264.72 172.61 350.88 196.08C352.03 196.39 353.19 196.7 354.36 197.01C354.75 197.12 355.15 197.23 355.54 197.33C357.67 197.91 359.85 198.48 362.05 199.06C366.81 200.31 371.74 201.58 376.83 202.85C439.68 218.59 420.45 216.18 369.56 215C363.31 214.85 356.6 214.72 349.49 214.65C345.34 214.61 341.05 214.59 336.66 214.59H335.48C325.69 214.61 315.36 214.75 304.68 215.1C303.26 215.15 301.83 215.2 300.4 215.26C268.92 216.46 234.74 219.52 202.95 226.41C201.35 226.75 199.75 227.11 198.16 227.48C198.02 227.51 197.89 227.54 197.76 227.57C193.95 228.45 190.45 229.29 187.24 230.1C160.83 235.59 139.57 246.92 187.24 243.77C189.95 243.72 192.81 243.64 195.8 243.53C198.83 243.43 201.98 243.29 205.27 243.13C213.67 242.73 222.82 242.16 232.41 241.48C234.62 241.32 236.87 241.15 239.12 240.98C250.22 240.14 261.77 239.15 273.3 238.06C278.6 237.56 283.89 237.03 289.14 236.5C291.87 236.22 294.59 235.93 297.29 235.65C300.94 235.26 304.55 234.86 308.11 234.46C314.56 233.73 320.84 232.99 326.86 232.25C331.92 231.62 336.79 230.98 341.41 230.36C344.83 229.88 348.12 229.42 351.25 228.95C353.93 228.56 356.49 228.17 358.92 227.77C361.51 228.91 365.3 230.49 369.9 232.25C369.92 232.26 369.93 232.27 369.95 232.27C375.06 234.22 381.19 236.37 387.86 238.33C390.2 239.03 392.61 239.7 395.06 240.32C397.2 240.88 399.38 241.39 401.57 241.88C404.94 242.6 408.35 243.24 411.77 243.74C418.81 244.77 425.84 245.21 432.43 244.7C432.81 244.68 433.19 244.65 433.56 244.61C436.11 244.37 438.67 244.19 441.28 244.05C444.19 243.9 447.17 243.81 450.29 243.77C451.62 243.75 452.97 243.74 454.35 243.74C459.67 243.73 465.43 243.85 471.95 244.05C472.62 244.07 473.29 244.09 473.98 244.11C478.54 244.26 483.48 244.44 488.87 244.64C492.26 244.77 495.83 244.9 499.61 245.04C506.85 245.3 514.86 245.59 523.79 245.87C525.49 245.92 527.21 245.98 528.98 246.03C534.69 246.2 540.78 246.36 547.27 246.51C555.76 246.72 564.95 246.91 574.92 247.07C579.42 247.14 584.07 247.2 588.89 247.26C604.54 247.45 621.93 247.57 641.36 247.57H647.97C767.77 247.4 703.13 239.44 540.22 210.56C507.17 204.7 470.07 197.99 429.65 190.3C189.37 144.58 421.41 187.33 503.58 190.3C512.73 190.63 522.26 190.83 532.03 190.91C609.99 191.54 703.27 184.4 741.22 173.39C783.93 161 495.76 140.88 489.39 132.99C483.03 125.1 606.14 137.78 754.85 117.54C759.36 116.93 763.65 116.32 767.74 115.74V71.3199C738.01 69.2499 702.23 69.69 698.09 69.95C702.22 68.99 738.04 55.2599 767.74 41.1199V2.68994H767.72Z" fill="url(#paint0_linear_4503_28020)"/>
<path opacity="0.2" d="M437.49 248.02C437.49 333.79 405.91 409.35 357.95 453.71H159.15C111.19 409.34 79.61 333.79 79.61 248.02C79.61 242.89 79.72 237.82 79.95 232.77C85.64 103.28 163.43 0.709961 258.55 0.709961C353.67 0.709961 432.42 104.56 437.24 235.19C437.41 239.44 437.48 243.72 437.48 248.02H437.49Z" fill="url(#paint1_radial_4503_28020)"/>
<path opacity="0.6" d="M260 390C337.746 374.817 399.485 375.005 386.45 308.258C373.415 241.51 299.823 199.709 222.077 214.891C144.332 230.074 91.8734 296.491 104.908 363.239C117.943 429.986 182.254 405.183 260 390Z" fill="url(#paint2_radial_4503_28020)"/>
<path d="M310.37 238.64C295.01 235.34 279.09 233.92 262.96 234.58C262.84 234.97 262.72 235.38 262.6 235.8C261.85 238.4 261.11 241.42 260.52 244.2C260.32 245.15 260.14 246.08 259.98 246.95C242.92 248.01 226.57 251.4 210.95 257.11C208.57 253.92 205.24 249.98 202.53 247.1C187.61 252.88 173.83 260.47 161.43 269.54C159.02 275.59 156.96 281.55 155.22 287.43C149.1 308.16 147.05 327.83 148.2 346.67C149.12 361.88 152.13 376.55 156.75 390.8C157.14 391.99 157.53 393.18 157.94 394.37C163.64 396.82 169.22 398.93 174.69 400.73C176.41 401.3 178.11 401.83 179.81 402.34C193.29 406.36 206.12 408.56 218.53 409.6C221.53 402.97 223.97 396.08 225.79 388.97C218.84 387.99 212.04 386.4 205.46 384.29C206.74 382.89 207.97 381.45 209.14 379.98C248.18 388.37 286.52 380.43 317.62 357.5C319.37 358.36 321.14 359.18 322.92 359.95C317.91 364.48 312.46 368.61 306.62 372.24C311.51 377.94 316.84 383.23 322.6 388.05C339.05 379.13 355.15 367.38 370.55 350.32C364.26 304.53 342.88 268.12 310.35 238.65L310.37 238.64ZM222.94 355.91C212.35 358.11 201.41 350.5 198.66 339.03C195.91 327.57 202.16 316.38 212.94 314.15C223.72 311.92 234.66 319.53 237.22 331.04C239.98 342.5 233.72 353.67 222.94 355.91ZM294.18 341.15C283.59 343.35 272.65 335.74 269.9 324.27C267.16 312.81 273.4 301.62 284.18 299.39C294.96 297.15 305.9 304.77 308.46 316.28C311.21 327.74 304.96 338.91 294.18 341.15Z" fill="#FFF3F3"/>
<path d="M576.54 291.56C575.58 288.83 573.67 288.54 572.55 291C571.25 293.86 569.85 296.13 568.58 296.56C566.37 297.32 566.37 297.8 564.23 299.71C562.43 301.32 565.66 301.08 567.41 300.47C569.02 299.91 572.31 299.42 570.17 301.42C568.39 303.08 560.09 305.54 560.36 307.24C560.63 308.94 574.38 305.9 571.62 307.24C565.35 310.27 558.5 314.77 558.63 316.11C558.77 317.45 567.95 315.06 568.16 315.63C568.37 316.2 560.42 320.4 559.04 322.11C557.66 323.82 567.05 324.69 567.47 325.64C567.89 326.59 552.76 330.21 553.25 331.99C553.75 333.77 569.4 332.78 567.33 334.88C565.26 336.98 550.61 343.09 551.86 343.47C553.11 343.85 557.66 345 556 346.9C554.34 348.81 550.88 355.48 551.78 356.06C552.68 356.64 591.23 363.88 591.23 363.88C591.23 363.88 592.47 354.34 595.79 355.3C599.11 356.25 595.65 352.06 591.23 349.58C586.81 347.1 592.75 345.96 594.82 345.96C596.89 345.96 589.98 340.81 586.12 338.9C582.25 336.99 589.85 338.33 592.2 337.18C594.55 336.04 578.94 327.36 580.18 326.98C581.42 326.6 588.33 331.84 589.3 328.03C590.27 324.22 577.7 318.59 579.77 317.44C581.84 316.3 594 318.49 592.34 315.82C590.68 313.15 576.94 309.62 578.18 309.05C579.42 308.48 587.64 309.53 586.95 307.81C586.26 306.09 574.52 300.37 576.87 300.37C579.22 300.37 585.23 301.32 583.29 299.32C582.25 298.24 578.58 297.32 576.54 291.55V291.56Z" fill="#282133"/>
<path d="M128.83 367.78L109.23 388.12L156.51 389.44L133.4 367.86C132.59 367.1 129.53 367.05 128.82 367.78H128.83Z" fill="#282133"/>
<path d="M76 375.17L42.85 390.59L127.13 386.02L84.15 374.7C82.64 374.3 77.19 374.62 76 375.18V375.17Z" fill="#282133"/>
<path d="M29.94 396.48L0 397.07V387.48L6.66 389.48L29.94 396.48Z" fill="#282133"/>
<path d="M243.51 334.07L220.47 401.02L273.02 402.44L248.59 334.05C247.73 331.65 244.33 331.67 243.5 334.08L243.51 334.07Z" fill="#282133"/>
<path d="M361.85 313.07L338.81 380.02L391.36 381.44L366.93 313.05C366.07 310.65 362.67 310.67 361.84 313.08L361.85 313.07Z" fill="#282133"/>
<path d="M332.55 301.11L301.68 390.82L372.11 392.72L339.37 301.07C338.22 297.85 333.66 297.88 332.55 301.11Z" fill="#282133"/>
<path d="M511.87 256.58L476.96 358.01L556.59 360.16L519.58 256.53C518.28 252.89 513.13 252.92 511.87 256.57V256.58Z" fill="#282133"/>
<path d="M548.44 305.66L520.05 388.16L584.81 389.91L554.71 305.63C553.65 302.67 549.46 302.7 548.44 305.67V305.66Z" fill="#282133"/>
<path d="M169.09 339.06L134.45 411.78L193.67 420.13L174.84 339.68C174.18 336.86 170.33 336.44 169.08 339.06H169.09Z" fill="#282133"/>
<path d="M638.55 256.19L609.61 351.79L671.28 352.91L643.73 256.23C642.99 253.64 639.33 253.61 638.55 256.19Z" fill="#282133"/>
<path d="M607.19 277.59L583.29 355.26L644.98 355.87L613.59 277.33C612.4 274.36 608.14 274.53 607.2 277.59H607.19Z" fill="#282133"/>
<path d="M710.33 275.54L693.2 335.96L740.29 340.56L714.57 275.33C713.78 273.33 710.91 273.48 710.33 275.54Z" fill="#282133"/>
<path d="M470.33 300.54L453.2 360.96L500.29 365.56L474.57 300.33C473.78 298.33 470.91 298.48 470.33 300.54Z" fill="#282133"/>
<path d="M223.33 349.54L206.2 409.96L253.29 414.56L227.57 349.33C226.78 347.33 223.91 347.48 223.33 349.54Z" fill="#282133"/>
<path d="M767.96 292.3V333.07L759.15 332.57L737.61 331.35L736.64 331.29L724.15 330.58L727.23 321.67L729.85 314.07L749.72 256.57C750.64 253.92 754.4 253.9 755.33 256.55L767.96 292.3Z" fill="#282133"/>
<path d="M766.38 322.01L767.96 318.32V322.28L766.38 322.01Z" fill="#282133"/>
<path d="M767.96 315.84V453.97H0V389.9C2.22 389.76 4.43 389.62 6.63 389.48H6.66C22.07 388.49 36.96 387.52 51.51 386.56H51.52C72.67 385.17 93.1 383.8 113.37 382.4H113.38C113.87 382.36 114.35 382.33 114.84 382.3H114.85C120.59 381.9 126.31 381.51 132.04 381.1C133.89 380.97 135.74 380.84 137.59 380.72C140.55 380.51 143.52 380.3 146.49 380.08C147.55 380.01 148.61 379.93 149.66 379.85C160.91 379.05 172.21 378.23 183.67 377.38C194.33 376.6 205.12 375.79 216.12 374.96C220.64 374.62 225.2 374.27 229.8 373.92C232.21 373.74 234.62 373.55 237.05 373.37C239.82 373.15 242.6 372.94 245.4 372.72V372.7C247.99 372.51 250.59 372.3 253.21 372.1C256.11 371.88 259.02 371.64 261.95 371.41C263.51 371.28 265.08 371.16 266.66 371.03C269.94 370.78 273.26 370.52 276.6 370.26C276.66 370.26 276.7 370.24 276.76 370.24C278.72 370.08 280.7 369.92 282.68 369.76C286.59 369.45 290.54 369.13 294.53 368.8C299.51 368.4 304.55 367.99 309.66 367.58C310.99 367.47 312.33 367.37 313.67 367.26C316.77 366.99 319.89 366.74 323.04 366.48C329.92 365.92 336.92 365.34 344.06 364.74C348.47 364.38 352.93 364 357.44 363.62C358.82 363.51 360.2 363.39 361.58 363.28C365.74 362.93 369.95 362.58 374.2 362.22C377.5 361.94 380.83 361.66 384.2 361.38C388.35 361.03 392.56 360.67 396.81 360.3C397.61 360.23 398.42 360.16 399.23 360.09C404.35 359.66 409.54 359.22 414.81 358.77C419.6 358.36 424.46 357.95 429.38 357.52C431.47 357.33 433.58 357.15 435.71 356.97C441.75 356.45 447.9 355.92 454.14 355.38C454.36 355.36 454.57 355.34 454.79 355.32C455.58 355.26 456.38 355.2 457.17 355.11C459.33 354.92 461.5 354.73 463.67 354.53C468.64 354.09 473.63 353.62 478.64 353.13C483.99 352.62 489.36 352.09 494.76 351.53C502.34 350.76 509.95 349.95 517.61 349.11C523.09 348.51 528.59 347.89 534.11 347.26C534.5 347.22 534.89 347.17 535.28 347.13C538.72 346.73 542.18 346.33 545.64 345.93C547.51 345.72 549.38 345.49 551.26 345.26C552.6 345.11 553.93 344.95 555.27 344.78H555.28C557.99 344.47 560.7 344.13 563.42 343.8C564.99 343.61 566.56 343.41 568.14 343.22C574.65 342.42 581.19 341.6 587.74 340.77C588.19 340.72 588.62 340.66 589.06 340.6H589.07C597.33 339.55 605.63 338.47 613.96 337.37C621.41 336.39 628.87 335.39 636.37 334.37H636.38C642.51 333.55 648.66 332.72 654.83 331.86C658.17 331.4 661.52 330.93 664.87 330.47C669.37 329.85 673.87 329.22 678.38 328.59C684.23 327.77 690.1 326.95 695.98 326.11C706.36 324.65 716.78 323.16 727.22 321.67C728.99 321.42 730.77 321.17 732.54 320.91C735.62 320.47 738.71 320.03 741.8 319.58C745.89 319.01 749.98 318.41 754.07 317.83C758.69 317.16 763.32 316.5 767.95 315.84H767.96Z" fill="#282133"/>
<path opacity="0.5" d="M726.67 337.12C727.03 337.22 726.27 337.85 724.92 338.77C724.92 338.47 724.7 338.15 724.28 337.81C725.38 337.34 726.27 337 726.67 337.12Z" fill="#131821"/>
<path d="M767.96 342.35V453.97H0V419.54C35.6 417.39 51.45 419.64 89.85 417.58L99.01 390.97C99.63 389.17 102.16 389.16 102.8 390.95L111.89 416.39C114.61 416.24 117.33 416.09 120.06 415.95L129.44 388.69L132.04 381.1L132.57 379.57C133.32 377.39 136.4 377.37 137.18 379.55L137.59 380.72L140.55 388.99H140.56L142.59 394.7L149.45 413.89L149.61 414.34C150.32 414.3 151.03 414.26 151.74 414.22H151.77C165.16 413.48 178.52 412.76 191.78 412.01C197.6 411.7 203.4 411.37 209.18 411.05L209.45 410.28L218.9 382.8C219.46 381.18 221.74 381.16 222.31 382.77L224.57 389.1L228.91 401.25L231.96 409.77C232.66 409.73 233.36 409.7 234.06 409.65C234.96 408.16 235.88 406.82 236.56 406.07C238.68 403.77 232.85 402.39 231.26 401.93C231.03 401.86 231.23 401.65 231.74 401.32H231.75C233.74 400.08 240.4 397.22 245.4 394.8C245.43 394.79 245.46 394.77 245.49 394.76C248.11 393.48 250.27 392.31 251.04 391.57C251.99 390.66 250.02 390.23 247.07 389.95C245.98 389.85 244.76 389.77 243.5 389.7C238.69 389.41 233.38 389.18 233.06 388.08C232.76 387.08 236.9 385.57 241.31 384.14C244.73 383.03 248.3 381.97 250.08 381.22C250.88 380.88 251.32 380.61 251.23 380.42C251.16 380.27 250.91 380.13 250.51 379.98C247.85 378.99 238.92 377.97 240.46 376.16C241.17 375.33 243.22 374.02 245.41 372.72V372.7C248.69 370.74 252.27 368.76 252.11 368.34C251.84 367.65 240.1 370.53 239.93 368.92C239.75 367.31 248.51 361.88 256.53 358.22C260.05 356.61 242.49 360.26 242.13 358.22C241.78 356.18 252.4 353.2 254.67 351.2C254.69 351.18 254.71 351.17 254.72 351.15C256.27 349.77 255.46 349.4 254.12 349.47C253.18 349.52 251.98 349.78 251.14 350.05C248.91 350.78 244.78 351.07 247.08 349.13C249.82 346.83 249.82 346.26 252.64 345.33C254.27 344.81 256.05 342.07 257.71 338.62C259.15 335.65 261.59 336.01 262.82 339.3C263.42 340.91 264.13 342.22 264.89 343.26H264.9C265.95 344.73 267.09 345.74 268.12 346.48C268.12 346.49 268.12 346.49 268.12 346.49C269.57 347.55 270.84 348.09 271.44 348.67C272.66 349.87 271.4 350.2 269.45 350.22C267.46 350.23 264.75 349.95 263.23 349.95C261.29 349.95 266.87 352.83 271.3 355.42H271.31C273.73 356.85 275.81 358.18 276.12 358.91C276.47 359.74 274.99 360.03 272.99 360.13C270.01 360.28 265.86 359.99 264.91 360.4C264 360.8 269.31 362.34 274.44 364.2C278.32 365.61 282.1 367.18 283.01 368.57C283.38 369.13 283.22 369.51 282.69 369.76C281.69 370.26 279.36 370.3 276.77 370.24C276.72 370.24 276.66 370.24 276.6 370.23H276.59C272.68 370.15 268.25 369.85 266.94 370.53C266.7 370.65 266.62 370.82 266.66 371.03C267.03 373.11 280.25 379.11 279.12 383.3C277.89 387.9 269.06 381.57 267.47 382.03C265.88 382.49 285.83 392.97 282.83 394.34C279.83 395.72 270.12 394.11 275.06 396.41C277.48 397.55 280.84 399.61 283.32 401.42L285.49 395.13L294.54 368.8L301.68 348.06C302.52 345.63 305.95 345.61 306.81 348.03L311.69 361.7L313.68 367.26L318.31 380.23V380.25L322.17 391.02L322.29 391.38L326.92 404.32C347.05 403.14 366.39 401.99 384.67 400.88L391.74 381.1L397.99 363.58L399.24 360.09L401.87 352.72L407.05 338.24L410.54 328.47C412.03 324.27 417.97 324.31 419.42 328.51L421.6 334.85L423.27 339.7L424.94 344.58L426.29 348.49L429.34 357.37L429.39 357.52L431.15 362.61L432.4 366.26L433.61 362.86L435.7 357.01L435.72 356.97L441.3 341.34L446.27 327.45L447.26 324.66C448.3 321.76 452.41 321.78 453.41 324.7L458.93 340.76L459.71 343.01L463.68 354.53L463.91 355.2L463.98 355.4L466.33 362.24L467.39 365.33L476.02 390.4C478.83 389.91 481.65 389.41 484.48 388.9L493.07 364.85L493.57 363.45L493.82 362.74L495.33 358.52L496.37 355.6L496.67 354.76C497.49 352.47 500.74 352.49 501.53 354.8L502.88 358.71L503.93 361.76L504.61 363.74C505.72 362.23 509.74 360.51 513.72 359.01H513.76L513.77 359C518.63 357.17 523.38 355.67 522.52 355.27C520.94 354.55 510.48 355.88 511.36 353.7C511.74 352.77 514.64 350.93 517.62 349.11C518.04 348.86 518.46 348.61 518.87 348.36C522.49 346.18 525.74 344.23 524.19 344.23C521.2 344.23 513.56 345.45 516.02 342.9C517.34 341.52 522.01 340.36 524.61 333.01C525.83 329.55 528.26 329.17 529.69 332.3C530.62 334.35 531.58 336.15 532.54 337.45C533.28 338.45 534.02 339.14 534.73 339.38C535.52 339.65 536.09 339.9 536.56 340.17C537.76 340.84 538.31 341.64 540.27 343.38C542.56 345.42 538.44 345.12 536.23 344.35C535.93 344.26 535.59 344.15 535.23 344.06H535.22C533.1 343.53 530.38 343.39 532.71 345.56C533.07 345.9 533.64 346.26 534.34 346.64C534.63 346.8 534.95 346.97 535.29 347.13C537.43 348.18 540.28 349.34 542.37 350.45C542.89 350.72 543.36 350.98 543.76 351.24L543.99 350.58L545.65 345.93L547.11 341.86L548.58 337.74L551.59 329.31C552.73 326.13 557.18 326.1 558.39 329.19V329.2C558.41 329.24 558.43 329.3 558.45 329.35L559.79 333.23L561.52 338.27L563.42 343.8L566.42 352.53L568.86 359.62L570.43 364.2L573.03 371.74C574.68 371.42 576.33 371.11 577.99 370.8C578.43 370.72 578.87 370.62 579.31 370.55C586.33 369.2 593.37 367.89 600.43 366.63C603.88 366.01 607.33 365.39 610.78 364.8C615.76 363.93 620.75 363.09 625.74 362.28C631.56 361.33 637.39 360.43 643.21 359.57C645.59 357.8 648.57 355.87 650.78 354.78C653.11 353.64 652.17 353.41 650.22 353.33H650.15C648.27 353.26 645.5 353.33 643.77 352.86C643.5 352.8 643.27 352.7 643.06 352.6C642.95 352.55 642.87 352.48 642.83 352.4C642.82 352.4 642.82 352.39 642.82 352.39C642.66 352.13 642.8 351.76 643.15 351.3C644.38 349.72 648.19 347.08 651.69 344.72C655.55 342.12 659.05 339.84 658.35 339.62C657.4 339.33 653.85 341.62 650.9 342.45C648.94 342.99 647.24 342.89 646.75 340.95C646.41 339.62 647.37 338.11 648.89 336.6C650.54 334.97 652.84 333.31 654.84 331.86C657.72 329.78 660 328.11 658.87 327.49C657.13 326.53 649.81 327.41 645.64 327.15C643.48 327.02 642.16 326.58 642.88 325.43C643.17 324.97 643.76 324.47 644.54 323.97C649.45 320.86 662.25 317.45 660.89 316.82C659.31 316.09 648.86 317.42 649.74 315.24C650.22 314.03 655.08 311.23 658.76 308.99C661.69 307.22 663.88 305.78 662.56 305.78C661.42 305.78 659.6 305.97 657.92 306.03H657.91C655.2 306.16 652.87 306.02 654.39 304.45C654.88 303.95 655.83 303.47 656.96 302.68C658.89 301.36 661.35 299.2 662.98 294.56C664.21 291.09 666.63 290.72 668.06 293.85C669.72 297.49 671.49 300.37 673.11 300.93C675.92 301.9 675.92 302.51 678.64 304.93C680.93 306.97 676.82 306.67 674.6 305.9C672.55 305.2 668.36 304.56 671.09 307.11C672.84 308.76 679.61 311.01 682.38 312.95C683.17 313.51 683.64 314.03 683.56 314.51C683.53 314.72 683.36 314.85 683.07 314.95C680.22 316.02 666.05 312.97 669.24 314.51C677.21 318.37 685.93 324.09 685.76 325.8C685.58 327.49 673.9 324.47 673.63 325.2C673.5 325.55 675.79 326.97 678.39 328.59C681.17 330.33 684.32 332.3 685.23 333.43C686.99 335.62 675.04 336.72 674.51 337.92C673.98 339.13 693.23 343.74 692.59 346.01C691.96 348.26 672.05 347.01 674.69 349.68C675.28 350.28 676.69 351.14 678.49 352.12C679.91 352.89 681.6 353.74 683.31 354.59C687.65 354.16 691.98 353.77 696.31 353.42C702.1 352.95 707.87 352.57 713.63 352.27C719.23 351.98 724.8 351.77 730.36 351.66L731.41 348.72L734.52 340.01L737.16 332.61L737.61 331.35L741.81 319.58L745.24 309.99C746.28 307.09 750.39 307.11 751.39 310.03L754.08 317.83L759.15 332.57L762.58 342.53L763.79 346.05L765.19 350.1L766.74 345.77L767.96 342.35Z" fill="#1D1D2A"/>
<path opacity="0.2" d="M494.11 335.49C494.11 382.94 461.22 425.39 409.46 453.71H104.49C52.73 425.38 19.84 382.94 19.84 335.49C19.84 296.05 42.56 260.06 79.95 232.78C108.17 212.17 144.76 196.54 186.23 188.1C196.84 185.95 207.76 184.26 218.95 183.09C231.33 181.79 244.03 181.11 256.98 181.11C275.04 181.11 292.63 182.42 309.52 184.92C320.81 186.57 331.79 188.76 342.4 191.43C379.4 200.73 411.91 215.91 437.25 235.19C472.7 262.16 494.12 297.2 494.12 335.48L494.11 335.49Z" fill="url(#paint3_radial_4503_28020)"/>
<defs>
<linearGradient id="paint0_linear_4503_28020" x1="407.71" y1="-33.8401" x2="407.71" y2="301.59" gradientUnits="userSpaceOnUse">
<stop stop-color="#13151F"/>
<stop offset="0.29" stop-color="#1D1C2F"/>
<stop offset="0.39" stop-color="#212036"/>
<stop offset="0.52" stop-color="#33283E"/>
<stop offset="0.79" stop-color="#623D53"/>
<stop offset="1" stop-color="#8C5166"/>
</linearGradient>
<radialGradient id="paint1_radial_4503_28020" cx="0" cy="0" r="1" gradientUnits="userSpaceOnUse" gradientTransform="translate(253.535 249.182) scale(166.501 234.416)">
<stop stop-color="#BA7978"/>
<stop offset="0.07" stop-color="#BE7D7A" stop-opacity="0.92"/>
<stop offset="0.4" stop-color="#D29584" stop-opacity="0.53"/>
<stop offset="0.68" stop-color="#E1A68B" stop-opacity="0.24"/>
<stop offset="0.89" stop-color="#EAB190" stop-opacity="0.07"/>
<stop offset="1" stop-color="#EEB592" stop-opacity="0"/>
</radialGradient>
<radialGradient id="paint2_radial_4503_28020" cx="0" cy="0" r="1" gradientUnits="userSpaceOnUse" gradientTransform="translate(244.16 333.655) rotate(-11.05) scale(143.837 122.861)">
<stop stop-color="#BA7978"/>
<stop offset="0.32" stop-color="#C98B7F" stop-opacity="0.7"/>
<stop offset="1" stop-color="#EEB592" stop-opacity="0"/>
</radialGradient>
<radialGradient id="paint3_radial_4503_28020" cx="0" cy="0" r="1" gradientUnits="userSpaceOnUse" gradientTransform="translate(250.503 343.36) scale(221.456 154.437)">
<stop stop-color="#BA7978"/>
<stop offset="0.06" stop-color="#BF7F7A" stop-opacity="0.89"/>
<stop offset="0.23" stop-color="#CD8F81" stop-opacity="0.62"/>
<stop offset="0.4" stop-color="#D99D87" stop-opacity="0.4"/>
<stop offset="0.57" stop-color="#E2A78C" stop-opacity="0.22"/>
<stop offset="0.72" stop-color="#E8AE8F" stop-opacity="0.1"/>
<stop offset="0.87" stop-color="#ECB391" stop-opacity="0.03"/>
<stop offset="1" stop-color="#EEB592" stop-opacity="0"/>
</radialGradient>
</defs>
</svg>
