<svg width="360" height="442" viewBox="0 0 360 442" fill="none" xmlns="http://www.w3.org/2000/svg">
<path opacity="0.6" d="M360 0.640137C354.04 0.640137 347.58 0.890137 341.28 0.890137C320.65 0.890137 260.71 12.0801 202.51 42.8601C175.48 57.1601 194.86 61.9501 224.76 63.7001C213.78 64.1701 202.99 65.3401 193.18 67.5601C176.85 71.2501 161.22 74.2101 147.47 76.5501C121.42 80.9701 102.12 83.1301 97.69 83.7501C101.25 82.5101 114.76 75.7201 128.63 68.1701C149.28 56.9401 170.71 44.0501 161.16 45.4001C144.5 47.7501 108.43 48.0001 86.37 45.4001C67.69 43.1901 41.37 48.3601 0.0200195 48.4601V65.0701C6.80002 69.5601 11.32 73.8501 12.24 76.1901C12.83 77.6901 11.92 78.4001 9.17002 77.8501C8.05002 77.6301 6.62002 77.1901 4.87002 76.5201C3.44002 75.9801 1.82002 75.5201 0.0200195 75.1501V113.66C28.69 121.54 48.08 136.51 101.51 155.28C102.22 155.53 102.94 155.78 103.67 156.02C103.91 156.11 104.16 156.2 104.4 156.28C105.72 156.74 107.07 157.2 108.44 157.66C111.39 158.66 114.45 159.67 117.61 160.69C156.59 173.28 144.66 171.35 113.1 170.41C109.23 170.29 105.06 170.19 100.65 170.13C98.08 170.1 95.42 170.08 92.69 170.08H91.96C85.89 170.1 79.48 170.21 72.86 170.49C71.98 170.53 71.09 170.57 70.21 170.62C50.68 171.58 29.49 174.03 9.77002 179.54C8.78002 179.81 7.79002 180.1 6.80002 180.4C6.72002 180.42 6.63002 180.45 6.55002 180.47C4.19002 181.17 2.02002 181.85 0.0300195 182.49V193.42C1.71002 193.38 3.49002 193.32 5.34002 193.23C7.22002 193.15 9.18002 193.04 11.21 192.91C16.42 192.59 22.09 192.13 28.04 191.59C29.41 191.46 30.8 191.33 32.2 191.19C39.08 190.52 46.25 189.73 53.4 188.86C56.69 188.46 59.97 188.04 63.22 187.61C64.91 187.39 66.6 187.15 68.28 186.93C70.54 186.62 72.78 186.3 74.99 185.98C78.99 185.4 82.89 184.8 86.62 184.21C89.76 183.71 92.78 183.19 95.64 182.7C97.76 182.32 99.8 181.95 101.74 181.57C103.4 181.26 104.99 180.95 106.5 180.63C108.11 181.54 110.46 182.8 113.31 184.21C113.32 184.21 113.33 184.23 113.34 184.23C116.51 185.79 120.31 187.51 124.45 189.08C125.9 189.64 127.4 190.18 128.92 190.67C130.25 191.12 131.6 191.53 132.96 191.92C135.05 192.5 137.16 193.01 139.28 193.41C143.65 194.23 148.01 194.59 152.09 194.18C152.33 194.16 152.56 194.14 152.79 194.11C154.37 193.92 155.96 193.77 157.58 193.66C159.38 193.54 161.23 193.47 163.17 193.44C163.99 193.42 164.83 193.42 165.69 193.42C168.99 193.42 172.56 193.51 176.6 193.67C177.01 193.69 177.43 193.7 177.86 193.72C180.69 193.84 183.75 193.98 187.1 194.14C189.2 194.24 191.42 194.35 193.76 194.46C198.25 194.67 203.22 194.9 208.76 195.12C209.81 195.16 210.88 195.21 211.98 195.25C215.52 195.39 219.3 195.51 223.32 195.63C228.59 195.8 234.29 195.95 240.47 196.08C243.26 196.14 246.14 196.18 249.13 196.23C258.83 196.38 269.62 196.48 281.67 196.48H285.77C360.07 196.34 319.98 189.98 218.94 166.89C198.44 162.2 175.44 156.84 150.37 150.69C1.35001 114.13 145.26 148.32 196.22 150.69C201.89 150.95 207.81 151.11 213.87 151.18C262.22 151.68 320.07 145.97 343.6 137.17C370.09 127.26 191.37 111.18 187.42 104.87C183.48 98.5601 259.83 108.7 352.05 92.5201C354.85 92.0301 357.51 91.5401 360.04 91.0801V55.5601C341.6 53.9001 319.41 54.2601 316.84 54.4601C319.4 53.6901 341.62 42.7101 360.04 31.4101V0.680115L360 0.640137Z" fill="url(#paint0_linear_4503_28021)"/>
<path d="M355.85 335.97C355.63 335.91 355.91 335.69 356.52 335.36C357.27 334.95 358.53 334.38 360 333.74V337.64C359.35 337.01 357.91 336.54 356.84 336.25C356.44 336.13 356.08 336.04 355.85 335.97Z" fill="#282133"/>
<path d="M357.24 325.72C357.09 325.26 358.27 324.66 360 324.02V326.54C358.46 326.37 357.37 326.12 357.24 325.72Z" fill="#282133"/>
<path d="M360 339.03V348.1C357.54 347.64 355.94 347.32 355.77 347.22C355.41 347.02 355.74 345.96 356.37 344.66C356.93 343.48 357.74 342.09 358.52 340.94C359.06 340.14 359.58 339.46 359.99 339.04L360 339.03Z" fill="#282133"/>
<path d="M207.79 269.69L188.53 325.65L232.46 326.84L212.04 269.67C211.32 267.66 208.48 267.68 207.79 269.69Z" fill="#282133"/>
<path d="M238.79 265.32L216.51 330.06L267.34 331.43L243.72 265.29C242.89 262.97 239.6 262.99 238.8 265.32H238.79Z" fill="#282133"/>
<path d="M301.49 270.83L279.21 335.57L330.04 336.94L306.42 270.8C305.59 268.48 302.3 268.5 301.5 270.83H301.49Z" fill="#282133"/>
<path d="M360 345.08V350.38L311.08 349.06L311.3 348.41L313.32 342.55L313.99 340.61L315.38 336.55L317.76 329.63L320.06 322.97L322.5 315.87L322.67 315.38L323.36 313.36L324.45 310.21L325.65 306.73L330.6 292.34L333.36 284.32C334.16 281.99 337.46 281.97 338.28 284.29L340.6 290.77L346.96 308.6L347.19 309.24L347.88 311.15L348.52 312.96L352.91 325.26L353.47 326.81L353.59 327.14L354.06 328.48L356.51 335.36L356.83 336.25L358.51 340.94L359.99 345.08H360Z" fill="#282133"/>
<path d="M24.19 255.81L2.09003 325.87C1.54003 327.61 2.72004 329.42 4.53004 329.63L54.29 335.33C56.43 335.58 58.09 333.48 57.35 331.45L29.69 255.69C28.74 253.09 25.03 253.17 24.2 255.81H24.19Z" fill="#282133"/>
<path d="M59.32 282.25L35.63 335.33L94.25 335.29L64.45 282.02C63.3 279.96 60.28 280.09 59.32 282.25Z" fill="#282133"/>
<path d="M0 303.01V297.42C3.8 298.76 6.73 300.2 6.17 301.56C5.56 303.04 3.02 303.26 0 303.01Z" fill="#282133"/>
<path d="M0 291.22V286.84C5.16 287.61 9.76 288.49 11.07 289.39C12.98 290.72 6.77 291.02 0 291.22Z" fill="#282133"/>
<path d="M6.78 311C4.2 311.16 1.55 311.26 0 311.42V305.14C2.78 305.92 5.59 306.72 7.9 307.45C11.83 308.71 14.34 309.78 12.82 310.22C11.46 310.61 9.15 310.84 6.78 311Z" fill="#282133"/>
<path d="M21.7 327.56C21.08 327.5 20.5 327.53 19.96 327.63C17.95 328 16.53 329.36 15.53 330.89C14.76 332.08 14.25 333.38 13.92 334.41C13.55 335.55 12.46 336.28 11.27 336.23C8.97 336.12 4.99 335.93 0 335.69V312.25C0.25 312.31 0.53 312.37 0.86 312.43C2.38 312.72 4.15 313.12 5.97 313.58C13.58 315.49 22.22 318.39 18.89 318.54C14.75 318.72 3.02 320.36 12.07 322.39C15.37 323.13 18.43 324.09 20.66 325H20.67C20.73 325.03 20.79 325.05 20.84 325.08C24.61 326.63 25.89 327.96 21.7 327.56Z" fill="#282133"/>
<path d="M98.09 261.02C97.56 259.37 95.34 259.12 94.47 260.62C92.43 264.12 90.17 267.11 88.17 267.61C85.23 268.33 85.23 268.8 82.36 270.64C79.95 272.19 84.24 271.99 86.55 271.41C88.69 270.88 93.06 270.43 90.19 272.37C87.82 273.98 76.78 276.3 77.12 277.96C77.46 279.62 95.69 276.78 92.02 278.06C83.68 280.97 74.54 285.3 74.7 286.6C74.86 287.9 87.05 285.66 87.32 286.22C87.59 286.78 77.01 290.81 75.16 292.47C73.31 294.13 85.73 295.06 86.26 295.99C86.79 296.92 66.72 300.32 67.35 302.06C67.98 303.8 88.71 302.98 85.94 305.01C83.17 307.05 63.69 312.87 65.33 313.26C66.97 313.65 72.99 314.8 70.77 316.65C68.55 318.5 63.86 324.98 65.05 325.55C66.24 326.12 117.15 333.54 117.15 333.54C117.15 333.54 118.94 324.24 123.31 325.2C127.68 326.16 123.17 322.03 117.36 319.57C111.55 317.11 119.42 316.05 122.17 316.06C124.91 316.08 115.85 310.99 110.75 309.09C105.66 307.19 115.7 308.57 118.82 307.47C121.95 306.37 101.41 297.76 103.06 297.4C104.71 297.04 113.78 302.22 115.11 298.51C116.45 294.79 99.89 289.19 102.65 288.09C105.41 286.99 121.47 289.24 119.31 286.62C117.15 284 99.01 280.43 100.67 279.88C102.32 279.33 113.19 280.43 112.3 278.75C111.41 277.07 95.95 271.37 99.06 271.39C102.17 271.41 110.11 272.4 107.58 270.42C106.08 269.25 100.4 268.25 98.07 261L98.09 261.02Z" fill="#282133"/>
<path d="M134.85 228.27C135.06 226.26 137.69 225.64 138.78 227.34C141.7 231.88 144.73 235.7 146.96 236.21C150.27 236.98 150.38 237.61 153.85 239.9C156.77 241.83 152.13 241.88 149.52 241.27C147.11 240.71 142.33 240.42 145.82 242.84C148.72 244.85 161.06 247.19 161.06 249.47C161.06 251.75 140.88 249.26 145.1 250.73C154.68 254.06 165.44 259.27 165.55 261.06C165.66 262.85 152.09 260.71 151.93 261.49C151.77 262.27 163.99 266.96 166.35 269.08C168.7 271.21 155.58 273.39 155.21 274.71C154.84 276.03 177.12 279.14 176.82 281.56C176.52 283.97 154.1 284.41 157.53 286.97C160.95 289.53 183.11 296 181.44 296.65C179.76 297.3 173.56 299.32 176.35 301.67C179.14 304.02 183.6 325.4 182.45 326.26C181.3 327.12 130.3 328.14 130.3 328.14C130.3 328.14 126.35 315.62 121.87 317.25C117.39 318.89 121.32 312.93 127.02 309.14C132.72 305.35 124.03 304.5 121.1 304.73C118.17 304.96 126.77 297.35 131.82 294.39C136.87 291.43 126.4 294.05 122.81 292.79C119.22 291.53 139.36 278.27 137.51 277.9C135.66 277.53 127.07 285.27 124.82 280.31C122.57 275.35 139.1 266.48 135.9 265.19C132.7 263.9 115.97 268.17 117.7 264.44C119.44 260.71 138.11 254.49 136.22 253.87C134.33 253.25 122.91 255.56 123.5 253.2C124.09 250.84 139.42 241.93 136.09 242.2C132.76 242.46 124.46 244.4 126.74 241.52C128.08 239.83 133.85 238.06 134.85 228.27Z" fill="#282133"/>
<path d="M360 321.25V441.98H0V320.87C0.66 320.84 1.31 320.82 1.97 320.79C6.59 320.61 11.19 320.44 15.76 320.27C17.39 320.21 19.02 320.14 20.64 320.08H20.68C20.74 320.08 20.81 320.08 20.87 320.08C25.91 319.9 30.92 319.71 35.9 319.54C37.57 319.48 39.24 319.42 40.91 319.36C40.93 319.36 40.94 319.36 40.96 319.36C45.34 319.2 49.7 319.05 54.03 318.9C58.3 318.75 62.54 318.61 66.76 318.47H66.77C73.15 318.26 79.48 318.06 85.75 317.86H85.76C90.01 317.73 94.24 317.6 98.44 317.47C104.12 317.3 109.75 317.14 115.34 316.99C118.36 316.91 121.35 316.83 124.33 316.75C125.27 316.73 126.2 316.7 127.14 316.68C145.66 316.21 163.63 315.84 180.99 315.58C184.78 315.53 188.53 315.48 192.26 315.43C192.63 315.43 193.01 315.43 193.38 315.42C197.26 315.37 201.1 315.34 204.91 315.31C210.66 315.26 216.32 315.22 221.91 315.21C222.06 315.21 222.21 315.21 222.36 315.21C224.05 315.21 225.73 315.2 227.4 315.2H227.93C231.51 315.2 236.93 315.35 244 315.6C248.76 315.77 254.27 315.99 260.47 316.27C260.99 316.3 261.51 316.32 262.04 316.34H262.05C268.87 316.64 276.48 316.99 284.84 317.4C284.96 317.4 285.07 317.4 285.19 317.42C288.16 317.56 291.21 317.71 294.36 317.87C302.35 318.26 310.92 318.69 320.01 319.16C321.72 319.25 323.44 319.34 325.19 319.43H325.2C333.62 319.87 342.46 320.32 351.67 320.81C352.25 320.84 352.83 320.87 353.41 320.9H353.42C353.71 320.91 354 320.93 354.29 320.95C356.16 321.05 358.04 321.15 359.94 321.25H360Z" fill="#282133"/>
<path d="M324.72 378.93L312.94 345.96L311.99 343.29V343.27L308.4 333.21L308.1 332.38C307.07 329.48 302.96 329.5 301.95 332.41L301.74 333.03L292.57 359.67L282.88 332.52L281 327.26L278.96 321.55C277.93 318.65 273.82 318.68 272.81 321.59L253.48 377.76C250.24 377.76 247 377.76 243.78 377.79C241.59 375.06 233.94 370.13 228.75 366.6C225.48 364.38 223.18 362.71 223.86 362.5C224.8 362.21 227.7 363.86 230.73 365.16C234.39 366.71 238.24 367.75 239.13 364.26C239.48 362.88 238.76 361.35 237.47 359.79C232.77 354.14 220.45 348.04 223.16 346.54C226.63 344.62 246.99 348.29 244.21 343.82C241.44 339.35 218.42 333.44 220.5 332.49C222.59 331.53 236.35 333.28 235.19 330.41C234.91 329.71 233.51 328.6 231.62 327.32C229.83 326.12 227.6 324.77 225.46 323.48C222.92 321.95 220.5 320.49 219.08 319.46C217.8 318.54 217.34 317.96 218.31 317.96C218.68 317.96 219.11 317.97 219.58 318C224.04 318.22 231.98 319.23 229.05 316.2C228.19 315.3 226.24 314.47 224.08 312.68C223.53 312.22 222.98 311.71 222.41 311.11C222.3 310.99 222.18 310.87 222.08 310.74C221.59 310.2 221.11 309.59 220.63 308.92C220 308.01 219.39 306.98 218.82 305.78C218.45 304.99 218.09 304.13 217.76 303.19C216.14 298.62 212.95 298.13 211.07 302.25C209.95 304.72 208.79 306.92 207.64 308.57C206.73 309.87 205.82 310.84 204.95 311.33C204.78 311.43 204.6 311.51 204.43 311.57C200.73 312.85 200.73 313.64 197.14 316.84C194.12 319.53 199.54 319.13 202.46 318.11C205.15 317.18 210.67 316.36 207.09 319.71C206.1 320.63 203.91 321.7 201.44 322.83C196.47 325.09 190.37 327.56 190.68 329.45C191.14 332.29 214.15 327.22 209.53 329.45C199.03 334.53 187.55 342.07 187.78 344.3C188.02 346.54 203.39 342.55 203.74 343.5C204.1 344.46 190.79 351.49 188.48 354.36C186.16 357.24 201.89 358.67 202.59 360.27C203.17 361.61 185.3 366.13 180.14 369.29C175.44 366.02 169.93 362.62 170.79 362.35C172.37 361.87 181.16 368.54 182.39 363.69C183.24 360.34 175.91 355.91 172.14 353C170.43 351.68 169.44 350.67 170.26 350.22C170.94 349.84 172.49 349.75 174.37 349.76C179.74 349.8 187.81 350.68 186.25 348.16C185.38 346.76 181.9 345.17 178.22 343.74C172.97 341.7 167.31 339.98 168.24 339.55C169.82 338.82 180.28 340.15 179.4 337.97C178.52 335.79 163.59 328.51 166.57 328.51C169.55 328.51 177.2 329.72 174.74 327.18C173.99 326.4 172.18 325.69 170.28 323.9C168.81 322.52 167.28 320.49 166.15 317.29C164.93 313.82 162.5 313.45 161.08 316.58C159.42 320.22 157.65 323.1 156.03 323.66C155.31 323.92 154.77 324.16 154.31 324.4C154.31 324.41 154.31 324.41 154.31 324.41H154.27C153.03 325.09 152.49 325.89 150.5 327.66C148.21 329.7 152.33 329.4 154.55 328.63C156.59 327.92 160.78 327.3 158.06 329.84C155.8 331.96 145.23 335.09 145.58 337.24C145.94 339.4 163.42 335.55 159.91 337.24C151.93 341.1 143.21 346.83 143.39 348.52C143.56 350.22 155.25 347.19 155.51 347.92C155.78 348.65 145.67 353.98 143.92 356.17C142.16 358.35 154.11 359.44 154.63 360.65C154.93 361.32 149.21 363.02 144.12 364.79L130.61 326.97C130.4 326.37 130.06 325.9 129.64 325.56C128.02 324.19 125.25 324.69 124.46 327L106.15 380.2L105.95 380.79L88.58 332.13L86.33 325.83L86.1 325.19C85.1 322.41 81.29 322.31 80.1 324.88C80.04 324.99 79.99 325.11 79.95 325.23L77.57 332.14L61.68 378.3L45.2 332.16L44.82 331.08L40.96 320.29L40.94 320.23L40.05 317.73L39.44 316.04L38.1 312.27L35.93 306.19L33 297.99C31.5 293.81 25.57 293.84 24.12 298.05L20.9 307.39L20.87 307.49L19.99 310.04L18.75 313.67L18.51 314.35L18.14 315.43L16.44 320.37L15.79 322.25L13.97 327.55L12.1 332.98L0 368.05V441.99H360V380.49C348.18 379.85 336.41 379.33 324.72 378.93ZM186.06 375.33C186.84 374.95 186.04 373.9 184.47 372.55C192.21 373.35 204.81 373.24 202.34 375.75C201.66 376.44 200.16 377.39 198.22 378.47C192.41 378.62 186.65 378.78 180.94 378.96C180.01 378.4 179.12 377.9 178.33 377.51C173.41 375.09 183.07 376.79 186.06 375.33ZM154.43 372.41C153.58 373.27 151.09 374.65 148.15 376.15L146.09 370.38C151.04 370.69 155.8 371.02 154.43 372.41Z" fill="#1D1D2A"/>
<defs>
<linearGradient id="paint0_linear_4503_28021" x1="180" y1="-77.6598" x2="180" y2="254.6" gradientUnits="userSpaceOnUse">
<stop stop-color="#13151F"/>
<stop offset="0.29" stop-color="#1D1C2F"/>
<stop offset="0.39" stop-color="#212036"/>
<stop offset="0.52" stop-color="#33283E"/>
<stop offset="0.79" stop-color="#623D53"/>
<stop offset="1" stop-color="#8C5166"/>
</linearGradient>
</defs>
</svg>
